<?plantuml 1.2026.2?><svg xmlns="http://www.w3.org/2000/svg" xmlns:xlink="http://www.w3.org/1999/xlink" contentStyleType="text/css" data-diagram-type="DESCRIPTION" height="891px" preserveAspectRatio="none" style="width:1485px;height:891px;background:#FFFFFF;" version="1.1" viewBox="0 0 1485 891" width="1485px" zoomAndPan="magnify"><title>Notification Event Handling (JoinRequestSubmitted) - Collaboration Diagram</title><defs/><g><g class="title" data-source-line="69"><text fill="#000000" font-family="Arial" font-size="14" font-weight="bold" lengthAdjust="spacing" textLength="511.0205" x="480.4789" y="23.1318">Notification Event Handling (JoinRequestSubmitted) - Collaboration Diagram</text></g><!--entity DP--><g class="entity" data-qualified-name="DP" data-source-line="88" id="ent0002"><rect fill="#FFF3E0" height="57.9468" rx="4" ry="4" style="stroke:#2E5FA3;stroke-width:0.5;" width="148.3906" x="724.32" y="44.0986"/><text fill="#1F3864" font-family="Arial" font-size="11" font-style="italic" lengthAdjust="spacing" textLength="48.313" x="774.3588" y="64.4165">&#171;Module&#187;</text><text fill="#1F3864" font-family="Arial" font-size="11" lengthAdjust="spacing" textLength="128.3906" x="734.32" y="77.0654">DiscoveryAndParticipation</text><text fill="#1F3864" font-family="Arial" font-size="11" lengthAdjust="spacing" textLength="36.0776" x="734.32" y="89.7144">Module</text></g><!--entity Events--><g class="entity" data-qualified-name="Events" data-source-line="91" id="ent0003"><rect fill="#FFFDE7" height="45.2979" rx="4" ry="4" style="stroke:#2E5FA3;stroke-width:0.5;" width="137.396" x="729.81" y="214.0486"/><text fill="#1F3864" font-family="Arial" font-size="11" font-style="italic" lengthAdjust="spacing" textLength="40.3638" x="778.3261" y="234.3665">&#171;Event&#187;</text><text fill="#1F3864" font-family="Arial" font-size="11" lengthAdjust="spacing" textLength="117.396" x="739.81" y="247.0154">InternalEventDispatcher</text></g><!--entity Handler--><g class="entity" data-qualified-name="Handler" data-source-line="94" id="ent0004"><rect fill="#F0F4FF" height="57.9468" rx="4" ry="4" style="stroke:#2E5FA3;stroke-width:0.5;" width="122.7222" x="737.15" y="333.3486"/><text fill="#1F3864" font-family="Arial" font-size="11" font-style="italic" lengthAdjust="spacing" textLength="47.6953" x="774.6634" y="353.6665">&#171;Control&#187;</text><text fill="#1F3864" font-family="Arial" font-size="11" lengthAdjust="spacing" textLength="102.7222" x="747.15" y="366.3154">JoinEventNotification</text><text fill="#1F3864" font-family="Arial" font-size="11" lengthAdjust="spacing" textLength="38.5215" x="747.15" y="378.9644">Handler</text></g><!--entity Recipient--><g class="entity" data-qualified-name="Recipient" data-source-line="97" id="ent0005"><rect fill="#F0F4FF" height="57.9468" rx="4" ry="4" style="stroke:#2E5FA3;stroke-width:0.5;" width="117.8345" x="219.59" y="517.6186"/><text fill="#1F3864" font-family="Arial" font-size="11" font-style="italic" lengthAdjust="spacing" textLength="48.9146" x="254.05" y="537.9365">&#171;Service&#187;</text><text fill="#1F3864" font-family="Arial" font-size="11" lengthAdjust="spacing" textLength="97.8345" x="229.59" y="550.5854">RecipientResolution</text><text fill="#1F3864" font-family="Arial" font-size="11" lengthAdjust="spacing" textLength="36.6792" x="229.59" y="563.2344">Service</text></g><!--entity BlockSvc--><g class="entity" data-qualified-name="BlockSvc" data-source-line="98" id="ent0006"><rect fill="#F0F4FF" height="57.9468" rx="4" ry="4" style="stroke:#2E5FA3;stroke-width:0.5;" width="108.0483" x="604.49" y="517.6186"/><text fill="#1F3864" font-family="Arial" font-size="11" font-style="italic" lengthAdjust="spacing" textLength="48.9146" x="634.0569" y="537.9365">&#171;Service&#187;</text><text fill="#1F3864" font-family="Arial" font-size="11" lengthAdjust="spacing" textLength="88.0483" x="614.49" y="550.5854">BlockSuppression</text><text fill="#1F3864" font-family="Arial" font-size="11" lengthAdjust="spacing" textLength="36.6792" x="614.49" y="563.2344">Service</text></g><!--entity Composer--><g class="entity" data-qualified-name="Composer" data-source-line="99" id="ent0007"><rect fill="#F0F4FF" height="57.9468" rx="4" ry="4" style="stroke:#2E5FA3;stroke-width:0.5;" width="135.5537" x="850.73" y="517.6186"/><text fill="#1F3864" font-family="Arial" font-size="11" font-style="italic" lengthAdjust="spacing" textLength="48.9146" x="894.0496" y="537.9365">&#171;Service&#187;</text><text fill="#1F3864" font-family="Arial" font-size="11" lengthAdjust="spacing" textLength="115.5537" x="860.73" y="550.5854">NotificationComposition</text><text fill="#1F3864" font-family="Arial" font-size="11" lengthAdjust="spacing" textLength="36.6792" x="860.73" y="563.2344">Service</text></g><!--entity Dispatch--><g class="entity" data-qualified-name="Dispatch" data-source-line="100" id="ent0008"><rect fill="#F0F4FF" height="57.9468" rx="4" ry="4" style="stroke:#2E5FA3;stroke-width:0.5;" width="117.2114" x="1148.91" y="517.6186"/><text fill="#1F3864" font-family="Arial" font-size="11" font-style="italic" lengthAdjust="spacing" textLength="48.9146" x="1183.0584" y="537.9365">&#171;Service&#187;</text><text fill="#1F3864" font-family="Arial" font-size="11" lengthAdjust="spacing" textLength="97.2114" x="1158.91" y="550.5854">NotificationDispatch</text><text fill="#1F3864" font-family="Arial" font-size="11" lengthAdjust="spacing" textLength="36.6792" x="1158.91" y="563.2344">Service</text></g><!--entity Gateway--><g class="entity" data-qualified-name="Gateway" data-source-line="103" id="ent0009"><rect fill="#FFE0B2" height="57.9468" rx="4" ry="4" style="stroke:#2E5FA3;stroke-width:0.5;" width="114.1445" x="1193.44" y="690.5086"/><text fill="#1F3864" font-family="Arial" font-size="11" font-style="italic" lengthAdjust="spacing" textLength="55.6445" x="1222.69" y="710.8265">&#171;Gateway&#187;</text><text fill="#1F3864" font-family="Arial" font-size="11" lengthAdjust="spacing" textLength="94.1445" x="1203.44" y="723.4754">NotificationDelivery</text><text fill="#1F3864" font-family="Arial" font-size="11" lengthAdjust="spacing" textLength="43.4092" x="1203.44" y="736.1244">Gateway</text></g><!--entity Activities--><g class="entity" data-qualified-name="Activities" data-source-line="106" id="ent0010"><path d="M6,702.3386 C6,692.3386 43.5107,692.3386 43.5107,692.3386 C43.5107,692.3386 81.0215,692.3386 81.0215,702.3386 L81.0215,736.6365 C81.0215,746.6365 43.5107,746.6365 43.5107,746.6365 C43.5107,746.6365 6,746.6365 6,736.6365 L6,702.3386" fill="#F5F5F5" style="stroke:#BFBFBF;stroke-width:0.5;"/><path d="M6,702.3386 C6,712.3386 43.5107,712.3386 43.5107,712.3386 C43.5107,712.3386 81.0215,712.3386 81.0215,702.3386" fill="none" style="stroke:#BFBFBF;stroke-width:0.5;"/><text fill="#1F3864" font-family="Arial" font-size="11" lengthAdjust="spacing" textLength="55.0215" x="16" y="726.6565">DS-HL-001</text><text fill="#1F3864" font-family="Arial" font-size="11" lengthAdjust="spacing" textLength="43.3984" x="16" y="739.3054">Activities</text></g><!--entity Participations--><g class="entity" data-qualified-name="Participations" data-source-line="107" id="ent0011"><path d="M216.55,702.3386 C216.55,692.3386 278.5126,692.3386 278.5126,692.3386 C278.5126,692.3386 340.4753,692.3386 340.4753,702.3386 L340.4753,736.6365 C340.4753,746.6365 278.5126,746.6365 278.5126,746.6365 C278.5126,746.6365 216.55,746.6365 216.55,736.6365 L216.55,702.3386" fill="#F5F5F5" style="stroke:#BFBFBF;stroke-width:0.5;"/><path d="M216.55,702.3386 C216.55,712.3386 278.5126,712.3386 278.5126,712.3386 C278.5126,712.3386 340.4753,712.3386 340.4753,702.3386" fill="none" style="stroke:#BFBFBF;stroke-width:0.5;"/><text fill="#1F3864" font-family="Arial" font-size="11" lengthAdjust="spacing" textLength="55.0215" x="226.55" y="726.6565">DS-HL-002</text><text fill="#1F3864" font-family="Arial" font-size="11" lengthAdjust="spacing" textLength="103.9253" x="226.55" y="739.3054">Activity Participations</text></g><!--entity Account--><g class="entity" data-qualified-name="Account" data-source-line="108" id="ent0012"><path d="M400.15,702.3386 C400.15,692.3386 450.5111,692.3386 450.5111,692.3386 C450.5111,692.3386 500.8722,692.3386 500.8722,702.3386 L500.8722,736.6365 C500.8722,746.6365 450.5111,746.6365 450.5111,746.6365 C450.5111,746.6365 400.15,746.6365 400.15,736.6365 L400.15,702.3386" fill="#F5F5F5" style="stroke:#BFBFBF;stroke-width:0.5;"/><path d="M400.15,702.3386 C400.15,712.3386 450.5111,712.3386 450.5111,712.3386 C450.5111,712.3386 500.8722,712.3386 500.8722,702.3386" fill="none" style="stroke:#BFBFBF;stroke-width:0.5;"/><text fill="#1F3864" font-family="Arial" font-size="11" lengthAdjust="spacing" textLength="55.6338" x="410.15" y="726.6565">DS-AP-001</text><text fill="#1F3864" font-family="Arial" font-size="11" lengthAdjust="spacing" textLength="80.7222" x="410.15" y="739.3054">Student Account</text></g><!--entity Blocks--><g class="entity" data-qualified-name="Blocks" data-source-line="109" id="ent0013"><path d="M600.51,702.3386 C600.51,692.3386 658.5061,692.3386 658.5061,692.3386 C658.5061,692.3386 716.5022,692.3386 716.5022,702.3386 L716.5022,736.6365 C716.5022,746.6365 658.5061,746.6365 658.5061,746.6365 C658.5061,746.6365 600.51,746.6365 600.51,736.6365 L600.51,702.3386" fill="#F5F5F5" style="stroke:#BFBFBF;stroke-width:0.5;"/><path d="M600.51,702.3386 C600.51,712.3386 658.5061,712.3386 658.5061,712.3386 C658.5061,712.3386 716.5022,712.3386 716.5022,702.3386" fill="none" style="stroke:#BFBFBF;stroke-width:0.5;"/><text fill="#1F3864" font-family="Arial" font-size="11" lengthAdjust="spacing" textLength="57.46" x="610.51" y="726.6565">DS-SM-001</text><text fill="#1F3864" font-family="Arial" font-size="11" lengthAdjust="spacing" textLength="95.9922" x="610.51" y="739.3054">Block Relationships</text></g><!--entity Notifications--><g class="entity" data-qualified-name="Notifications" data-source-line="112" id="ent0014"><path d="M815.3,702.3386 C815.3,692.3386 874.5153,692.3386 874.5153,692.3386 C874.5153,692.3386 933.7307,692.3386 933.7307,702.3386 L933.7307,736.6365 C933.7307,746.6365 874.5153,746.6365 874.5153,746.6365 C874.5153,746.6365 815.3,746.6365 815.3,736.6365 L815.3,702.3386" fill="#E3F2FD" style="stroke:#BFBFBF;stroke-width:0.5;"/><path d="M815.3,702.3386 C815.3,712.3386 874.5153,712.3386 874.5153,712.3386 C874.5153,712.3386 933.7307,712.3386 933.7307,702.3386" fill="none" style="stroke:#BFBFBF;stroke-width:0.5;"/><text fill="#1F3864" font-family="Arial" font-size="11" lengthAdjust="spacing" textLength="56.2407" x="825.3" y="726.6565">DS-NS-001</text><text fill="#1F3864" font-family="Arial" font-size="11" lengthAdjust="spacing" textLength="98.4307" x="825.3" y="739.3054">Notification Records</text></g><g class="entity" data-qualified-name="GMN29" data-source-line="139" id="ent0030"><path d="M968.32,667.8886 L968.32,715.4886 L933.94,719.4886 L968.32,723.4886 L968.32,771.08 A4,4 0 0 0 972.32,775.08 L1154.6974,775.08 A4,4 0 0 0 1158.6974,771.08 L1158.6974,673.8886 L1148.6974,663.8886 L972.32,663.8886 A4,4 0 0 0 968.32,667.8886" fill="#FEFFDD" style="stroke:#181818;stroke-width:0.5;"/><path d="M1148.6974,663.8886 L1148.6974,671.8886 A2,2 0 0 0 1150.6974,673.8886 L1158.6974,673.8886 L1148.6974,663.8886" fill="#FEFFDD" style="stroke:#181818;stroke-width:0.5;"/><text fill="#000000" font-family="Arial" font-size="11" lengthAdjust="spacing" textLength="131.4253" x="974.32" y="679.2065">Only DS-NS-001 is written.</text><text fill="#000000" font-family="Arial" font-size="11" lengthAdjust="spacing" textLength="119.2114" x="974.32" y="691.8554">DS-HL-001, DS-HL-002,</text><text fill="#000000" font-family="Arial" font-size="11" lengthAdjust="spacing" textLength="119.2061" x="974.32" y="704.5044">DS-AP-001, DS-SM-001</text><text fill="#000000" font-family="Arial" font-size="11" lengthAdjust="spacing" textLength="122.2783" x="974.32" y="717.1533">are read-only in this flow.</text><text fill="#000000" font-family="Arial" font-size="11" lengthAdjust="spacing" textLength="124.0991" x="974.32" y="729.8022">(System Invariant Rule 1)</text><text fill="#000000" font-family="Arial" font-size="11" lengthAdjust="spacing" textLength="169.3774" x="974.32" y="742.4511">Opening a notification is read-only;</text><text fill="#000000" font-family="Arial" font-size="11" lengthAdjust="spacing" textLength="157.7705" x="974.32" y="755.1001">no read/unread state is modeled</text><text fill="#000000" font-family="Arial" font-size="11" lengthAdjust="spacing" textLength="99.043" x="974.32" y="767.749">for the first skeleton.</text></g><g class="entity" data-qualified-name="GMN32" data-source-line="150" id="ent0033"><path d="M1302.05,520.2986 L1302.05,572.8943 A4,4 0 0 0 1306.05,576.8943 L1474.9782,576.8943 A4,4 0 0 0 1478.9782,572.8943 L1478.9782,526.2986 L1468.9782,516.2986 L1306.05,516.2986 A4,4 0 0 0 1302.05,520.2986" fill="#FEFFDD" style="stroke:#181818;stroke-width:0.5;"/><path d="M1468.9782,516.2986 L1468.9782,524.2986 A2,2 0 0 0 1470.9782,526.2986 L1478.9782,526.2986 L1468.9782,516.2986" fill="#FEFFDD" style="stroke:#181818;stroke-width:1;"/><text fill="#000000" font-family="Arial" font-size="11" lengthAdjust="spacing" textLength="155.9282" x="1308.05" y="531.6165">Pending request withdrawal has</text><text fill="#000000" font-family="Arial" font-size="11" lengthAdjust="spacing" textLength="152.8613" x="1308.05" y="544.2654">no NSF handler, no user-facing</text><text fill="#000000" font-family="Arial" font-size="11" lengthAdjust="spacing" textLength="129.0352" x="1308.05" y="556.9144">notification branch, and no</text><text fill="#000000" font-family="Arial" font-size="11" lengthAdjust="spacing" textLength="93.5322" x="1308.05" y="569.5633">DS-NS-001 record.</text></g><g class="entity" data-qualified-name="GMN35" data-source-line="157" id="ent0036"><path d="M581.68,840.0786 L581.68,880.0254 A4,4 0 0 0 585.68,884.0254 L731.3514,884.0254 A4,4 0 0 0 735.3514,880.0254 L735.3514,846.0786 L725.3514,836.0786 L662.51,836.0786 L658.51,746.8786 L654.51,836.0786 L585.68,836.0786 A4,4 0 0 0 581.68,840.0786" fill="#FEFFDD" style="stroke:#181818;stroke-width:0.5;"/><path d="M725.3514,836.0786 L725.3514,844.0786 A2,2 0 0 0 727.3514,846.0786 L735.3514,846.0786 L725.3514,836.0786" fill="#FEFFDD" style="stroke:#181818;stroke-width:0.5;"/><text fill="#000000" font-family="Arial" font-size="11" lengthAdjust="spacing" textLength="130.2168" x="587.68" y="851.3965">DS-SM-001 owned by SM.</text><text fill="#000000" font-family="Arial" font-size="11" lengthAdjust="spacing" textLength="119.2007" x="587.68" y="864.0454">NSF reads only (msg 8).</text><text fill="#000000" font-family="Arial" font-size="11" lengthAdjust="spacing" textLength="132.6714" x="587.68" y="876.6944">Block records not modified.</text></g><!--link DP to Events--><g class="link" data-entity-1="ent0002" data-entity-2="ent0003" data-link-type="dependency" data-source-line="115" id="lnk15"><path d="M798.51,102.2286 C798.51,133.8886 798.51,178.6286 798.51,207.5786" fill="none" id="DP-to-Events" style="stroke:#181818;stroke-width:1;"/><polygon fill="#181818" points="798.51,213.5786,802.51,204.5786,798.51,208.5786,794.51,204.5786,798.51,213.5786" style="stroke:#181818;stroke-width:1;"/><text fill="#000000" font-family="Arial" font-size="11" lengthAdjust="spacing" textLength="146.7437" x="805.9338" y="143.3665">1: emit JoinRequestSubmitted</text><text fill="#000000" font-family="Arial" font-size="11" lengthAdjust="spacing" textLength="159.5913" x="799.51" y="156.0154">{eventId, eventType, occurredAt,</text><text fill="#000000" font-family="Arial" font-size="11" lengthAdjust="spacing" textLength="146.7383" x="805.9365" y="168.6644">activityId, triggeringAccountId,</text><text fill="#000000" font-family="Arial" font-size="11" lengthAdjust="spacing" textLength="72.1606" x="843.2253" y="181.3133">participationId}</text></g><!--link Events to Handler--><g class="link" data-entity-1="ent0003" data-entity-2="ent0004" data-link-type="dependency" data-source-line="116" id="lnk16"><path d="M798.51,259.7986 C798.51,280.2186 798.51,304.6586 798.51,326.8886" fill="none" id="Events-to-Handler" style="stroke:#181818;stroke-width:1;"/><polygon fill="#181818" points="798.51,332.8886,802.51,323.8886,798.51,327.8886,794.51,323.8886,798.51,332.8886" style="stroke:#181818;stroke-width:1;"/><text fill="#000000" font-family="Arial" font-size="11" lengthAdjust="spacing" textLength="151.0352" x="799.51" y="300.6665">2: route JoinRequestSubmitted</text></g><!--link Handler to Recipient--><g class="link" data-entity-1="ent0004" data-entity-2="ent0005" data-link-type="dependency" data-source-line="119" id="lnk17"><path d="M736.85,364.4886 C587.64,367.9486 216.58,380.5986 179.51,421.2986 C160.06,442.6486 165.27,461.1586 179.51,486.2986 C188.5,502.1586 198.3985,511.2654 214.1385,520.2454" fill="none" id="Handler-to-Recipient" style="stroke:#181818;stroke-width:1;"/><polygon fill="#181818" points="219.35,523.2186,213.5149,515.2844,215.0071,520.7409,209.5506,522.2331,219.35,523.2186" style="stroke:#181818;stroke-width:1;"/><text fill="#000000" font-family="Arial" font-size="11" lengthAdjust="spacing" textLength="127.7837" x="180.51" y="458.1165">3: resolveRecipient(event)</text></g><!--link Recipient to Handler--><g class="link" data-entity-1="ent0005" data-entity-2="ent0004" data-link-type="dependency" data-source-line="123" id="lnk21"><path d="M295.4,517.1586 C315.57,484.2186 349.02,432.9586 368.51,421.2986 C429.36,384.8986 627.2469,370.966 730.8969,365.996" fill="none" id="Recipient-to-Handler" style="stroke:#181818;stroke-width:1;"/><polygon fill="#181818" points="736.89,365.7086,727.7087,362.1443,731.8957,365.9481,728.0919,370.1351,736.89,365.7086" style="stroke:#181818;stroke-width:1;"/><text fill="#000000" font-family="Arial" font-size="11" lengthAdjust="spacing" textLength="157.7598" x="369.51" y="458.1165">6a: [host inactive] suppress, end</text></g><!--link Recipient to Activities--><g class="link" data-entity-1="ent0005" data-entity-2="ent0010" data-link-type="dependency" data-source-line="120" id="lnk18"><path d="M219.51,549.3286 C173.37,553.8786 110.82,567.5686 72.51,606.8886 C50.44,629.5486 44.8725,660.7563 43.6025,685.9163" fill="none" id="Recipient-to-Activities" style="stroke:#181818;stroke-width:1;"/><polygon fill="#181818" points="43.3,691.9086,47.7486,683.1217,43.5521,686.915,39.7588,682.7184,43.3,691.9086" style="stroke:#181818;stroke-width:1;"/><text fill="#000000" font-family="Arial" font-size="11" lengthAdjust="spacing" textLength="70.9199" x="134.6465" y="618.2065">4: read activity</text><text fill="#000000" font-family="Arial" font-size="11" lengthAdjust="spacing" textLength="193.1929" x="73.51" y="630.8554">(HostAccountID, Title, Schedule, Mode)</text></g><!--link Recipient to Participations--><g class="link" data-entity-1="ent0005" data-entity-2="ent0011" data-link-type="dependency" data-source-line="121" id="lnk19"><path d="M276.78,575.9386 C276.27,585.7386 275.77,596.7886 275.51,606.8886 C274.78,635.9486 275.6411,663.2756 276.7311,685.8856" fill="none" id="Recipient-to-Participations" style="stroke:#181818;stroke-width:1;"/><polygon fill="#181818" points="277.02,691.8786,280.582,682.6965,276.7792,686.8844,272.5913,683.0817,277.02,691.8786" style="stroke:#181818;stroke-width:1;"/><text fill="#000000" font-family="Arial" font-size="11" lengthAdjust="spacing" textLength="130.8506" x="276.51" y="624.7065">5: read participation record</text></g><!--link Recipient to Account--><g class="link" data-entity-1="ent0005" data-entity-2="ent0012" data-link-type="dependency" data-source-line="122" id="lnk20"><path d="M337.87,562.5086 C363.49,571.5986 392,585.6786 411.51,606.8886 C433.33,630.5986 442.033,661.2854 446.293,686.0554" fill="none" id="Recipient-to-Account" style="stroke:#181818;stroke-width:1;"/><polygon fill="#181818" points="447.31,691.9686,449.7267,682.4209,446.4625,687.041,441.8424,683.7768,447.31,691.9686" style="stroke:#181818;stroke-width:1;"/><text fill="#000000" font-family="Arial" font-size="11" lengthAdjust="spacing" textLength="99.6768" x="437.8516" y="618.2065">6: read host account</text><text fill="#000000" font-family="Arial" font-size="11" lengthAdjust="spacing" textLength="114.9199" x="430.23" y="630.8554">(PlatformAccessStatus)</text></g><!--link Handler to BlockSvc--><g class="link" data-entity-1="ent0004" data-entity-2="ent0006" data-link-type="dependency" data-source-line="126" id="lnk22"><path d="M736.72,368.9086 C670.19,376.3486 570.72,392.1086 547.51,421.2986 C529.53,443.9086 532.66,461.5186 547.51,486.2986 C559.98,507.0986 576.9823,518.6752 598.4923,527.7552" fill="none" id="Handler-to-BlockSvc" style="stroke:#181818;stroke-width:1;"/><polygon fill="#181818" points="604.02,530.0886,597.2841,522.9034,599.4136,528.1441,594.1729,530.2737,604.02,530.0886" style="stroke:#181818;stroke-width:1;"/><text fill="#000000" font-family="Arial" font-size="11" lengthAdjust="spacing" textLength="206.0459" x="548.51" y="458.1165">7: checkBlock(triggeringAccountId, hostId)</text></g><!--link BlockSvc to Handler--><g class="link" data-entity-1="ent0006" data-entity-2="ent0004" data-link-type="dependency" data-source-line="128" id="lnk24"><path d="M713.02,523.0786 C729.91,513.8286 747.27,501.6286 759.51,486.2986 C781.51,458.7186 790.2727,424.4565 794.4727,397.6065" fill="none" id="BlockSvc-to-Handler" style="stroke:#181818;stroke-width:1;"/><polygon fill="#181818" points="795.4,391.6786,790.0571,399.9523,794.6273,396.6186,797.961,401.1887,795.4,391.6786" style="stroke:#181818;stroke-width:1;"/><text fill="#000000" font-family="Arial" font-size="11" lengthAdjust="spacing" textLength="153.4683" x="789.69" y="451.6165">8a: [block exists] suppress, end</text><text fill="#000000" font-family="Arial" font-size="11" lengthAdjust="spacing" textLength="124.0991" x="804.3746" y="464.2654">(System Invariant Rule 2)</text></g><!--link BlockSvc to Blocks--><g class="link" data-entity-1="ent0006" data-entity-2="ent0013" data-link-type="dependency" data-source-line="127" id="lnk23"><path d="M658.51,575.8086 C658.51,608.0486 658.51,654.3886 658.51,685.9086" fill="none" id="BlockSvc-to-Blocks" style="stroke:#181818;stroke-width:1;"/><polygon fill="#181818" points="658.51,691.9086,662.51,682.9086,658.51,686.9086,654.51,682.9086,658.51,691.9086" style="stroke:#181818;stroke-width:1;"/><text fill="#000000" font-family="Arial" font-size="11" lengthAdjust="spacing" textLength="122.2944" x="659.51" y="624.7065">8: read block relationship</text></g><!--link Handler to Composer--><g class="link" data-entity-1="ent0004" data-entity-2="ent0007" data-link-type="dependency" data-source-line="131" id="lnk25"><path d="M860.28,369.4486 C894.1,376.3186 933.32,390.8086 954.51,421.2986 C974.64,450.2586 959.7595,485.3856 942.7495,512.1356" fill="none" id="Handler-to-Composer" style="stroke:#181818;stroke-width:1;"/><polygon fill="#181818" points="939.53,517.1986,947.7347,511.7504,942.2129,512.9794,940.9839,507.4577,939.53,517.1986" style="stroke:#181818;stroke-width:1;"/><text fill="#000000" font-family="Arial" font-size="11" lengthAdjust="spacing" textLength="114.9414" x="993.2665" y="432.6165">9: composeNotification(</text><text fill="#000000" font-family="Arial" font-size="11" lengthAdjust="spacing" textLength="124.4214" x="988.5265" y="445.2654">recipient=HostAccountID,</text><text fill="#000000" font-family="Arial" font-size="11" lengthAdjust="spacing" textLength="78.5791" x="1011.4476" y="457.9144">type=JoinEvent,</text><text fill="#000000" font-family="Arial" font-size="11" lengthAdjust="spacing" textLength="172.7344" x="964.37" y="470.5633">targetContext=JoinRequestReview,</text><text fill="#000000" font-family="Arial" font-size="11" lengthAdjust="spacing" textLength="136.0444" x="982.715" y="483.2122">trigger=triggeringAccountId)</text></g><!--link Composer to Notifications--><g class="link" data-entity-1="ent0007" data-entity-2="ent0014" data-link-type="dependency" data-source-line="132" id="lnk26"><path d="M911.25,575.8086 C902.95,608.0486 890.9668,654.5783 882.8468,686.0983" fill="none" id="Composer-to-Notifications" style="stroke:#181818;stroke-width:1;"/><polygon fill="#181818" points="881.35,691.9086,887.4688,684.1911,882.5973,687.0667,879.7217,682.1953,881.35,691.9086" style="stroke:#181818;stroke-width:1;"/><text fill="#000000" font-family="Arial" font-size="11" lengthAdjust="spacing" textLength="141.8506" x="904.02" y="624.7065">10: create NotificationRecord</text></g><!--link Handler to Dispatch--><g class="link" data-entity-1="ent0004" data-entity-2="ent0008" data-link-type="dependency" data-source-line="135" id="lnk27"><path d="M860.05,366.9486 C947.29,373.1786 1101.25,388.5586 1145.51,421.2986 C1177.02,444.5986 1191.9386,482.6081 1199.7786,511.4981" fill="none" id="Handler-to-Dispatch" style="stroke:#181818;stroke-width:1;"/><polygon fill="#181818" points="1201.35,517.2886,1202.8533,507.5552,1200.0405,512.4632,1195.1325,509.6504,1201.35,517.2886" style="stroke:#181818;stroke-width:1;"/><text fill="#000000" font-family="Arial" font-size="11" lengthAdjust="spacing" textLength="158.9844" x="1191.17" y="458.1165">11: dispatch(notificationPayload)</text></g><!--link Dispatch to Gateway--><g class="link" data-entity-1="ent0008" data-entity-2="ent0009" data-link-type="dependency" data-source-line="136" id="lnk28"><path d="M1214.61,575.8086 C1222.58,607.4786 1233.9661,652.7299 1241.9361,684.4099" fill="none" id="Dispatch-to-Gateway" style="stroke:#181818;stroke-width:1;"/><polygon fill="#181818" points="1243.4,690.2286,1245.0833,680.5247,1242.1801,685.3797,1237.3251,682.4765,1243.4,690.2286" style="stroke:#181818;stroke-width:1;"/><text fill="#000000" font-family="Arial" font-size="11" lengthAdjust="spacing" textLength="106.396" x="1230.01" y="618.2065">12: deliver notification</text><text fill="#000000" font-family="Arial" font-size="11" lengthAdjust="spacing" textLength="74.293" x="1246.0615" y="630.8554">(push + in-app)</text></g><!--link Handler to GMN32--><g class="link" data-entity-1="ent0004" data-entity-2="ent0033" data-link-type="association" data-source-line="150" id="lnk34"><path d="M860.31,365.7786 C998.1,371.8286 1321.34,389.2786 1358.51,421.2986 C1385.44,444.4886 1391.24,487.0286 1391.78,515.8086" fill="none" id="Handler-GMN32" style="stroke:#181818;stroke-width:1;stroke-dasharray:7,7;"/></g><?plantuml-src nLVDSY8t4Bxp55tUGw02YOtjNOUiNOKD4piLEoxFvXHo43CDg3n8iv86bcnjLHuYJvWdIKiQXX66P0y9QtoOaRfRNt_glp7SP0WFql09JvZXKi1mWSB0BHDfniKKcZzABfxmVO7QnCLupet1j0KTk95PniPIUQq1PrF5ves6VkOYP_G8AKvOaPb82lF0vWXznLcsUp_cloESdDGsbIn4caWbKC55tQh2n30n9TGV6m3NB7cUEbc28nMyYewZioYoErAbgChLxl0ywf_IgZsiN3k9JYzUdpK-1P2POMEczza-jxzjszUH_Usp_HNyzUSV_Xz-oRLHICUWOr5jjWxptzXmTpJWEf4BLAk-I1-PCZpXkRl9aRYNQP7X4J0DWqTu-zQ_NrqH0L5qEZmEdVBXGZGP6oq7zcYdQtU2k1KiSyZ8J_8hcQ5o3harJKwvXzAdmV1DwDD3787tkWS9oIcMmSmcn7zxPtNGDiiSfdekZiIjFzLXBvy9_0r5cfBPrTL-s1hLWYUeuP3CFo554ISddb3BhF0kn1w9Sw4I82VATNAYPk4waybpNEIvGgrVgFlTHR9FkyxTZPpdKlEN6Fo6u_5VZQoZ9xImNWqiX4dnmOSWJ9d19Ll1byg5m1dCkCtuaVZ1etBEbC_aI_daas9uVDqDVNf2bdQao5QkIe8saku8chXsrKWRWAtFTRLHrTgZGTov_QbpV7mo4lt4y0LT6ce7RlEwGxnRYQyWA65UDrmAzVkF_hZO5AcDndwIK9qtvPdkELI8xxs2Yq2Y8lDMPppNcyZKBzAn8vS2qnfXXmY44Fb3x947FPxoa5gOXrxVqF1gU1frey6k6azTo-KaK1tw_mf-WtfEftErhjJ-hmSdFTSrOTSqCX8VqKhVfMrm3-zMERP19acX5APzqnu9LaQAbJ6AJwUe27vvrxGuiXF09bxkqa-D4e45iowz1AJRSxxZJYJR6REkTgggXmS9W3LS2tq3ekBojES1BR3QR3hUMesDjDNTf5-fUMOrMGfhDaUYUIkrMTCuQCCxEr2s8QQEQnjHspOatBORfYRPFI_j1dTWHpsAqXUOt5aRRrwNkZC2Gi3SBk5wf1ITI3KdUMebiM6cqDiugckjRB4U_EeCSHyn-1leiXjHR8cj2_RLG6_QrM7hVFsQgzP8NhoXgMM6oRDRQ-wATaVMNTfgL6gL3Us8k2X97JiFLQtUXIgrnBYmt7bv_C2rqLlKqPt4Asrm3dTYmUXRW2xXYK84kgsjkbclLCccZRkwawFIP1n5yjcrDE2fwlxhA_-kLvw1zNER8w7MeN8PXlX862elbzN0PXUOcgAnKnbrmyjQONZ21SUbbV2NSBdZCbgD2fC569PZAdp7193kmeIVQRw2XyHLSycNciBtibuXimvHAK_BzwQekVJ8Lfban4SbRLNNyudLfDgR-Y46H30cD_D2p-1hojeEotEA9zf68Avd1kGav9I-r7wsKqpL6u5hM2fRlyKtj5bD8-tgiTlswtviSEj-8A1bHarTLQCH5s1cP6-IoQKrjYVaJreMHOx2jb0ME6FHLFQ-9p4XtVktXN0PgOqD1HAQKs7DgEK0K9cZKn4cN57bqi-qR2JvGabdJMD9nrWQ8-UMZ_9gIFMHP2m6vUCLbjpCKiMMxeD7-zFjPqNvzTEsxmM5QcV24j9p0ZNiOyL4CckxJ1NIarQIx8lvFu0gHoZOi0j-UXgl8BwtP5eWbWCDZklcN4_XecLthiiovQOQQzwoGx2mVk3V?></g></svg>