<?plantuml 1.2026.2?><svg xmlns="http://www.w3.org/2000/svg" xmlns:xlink="http://www.w3.org/1999/xlink" contentStyleType="text/css" data-diagram-type="STATE" height="1183.125px" preserveAspectRatio="none" style="width:1575px;height:1183px;background:#FFFFFF;" version="1.1" viewBox="0 0 1575 1183" width="1575px" zoomAndPan="magnify"><title>StudentProfile - State Chart Diagram v1.1</title><defs/><g><g class="title" data-source-line="118"><text fill="#000000" font-family="Helvetica" font-size="26.25" font-weight="bold" lengthAdjust="spacing" textLength="533.8568" x="507.8718" y="38.963">StudentProfile - State Chart Diagram v1.1</text></g><g class="entity" data-qualified-name="NotCreated" id="ent0002"><rect fill="#F8FAFC" height="131.25" rx="23.4375" ry="23.4375" style="stroke:#334155;stroke-width:0.9375;" width="402.6965" x="635.6438" y="259.6875"/><line style="stroke:#334155;stroke-width:0.9375;" x1="635.6438" x2="1038.3403" y1="304.6875" y2="304.6875"/><text fill="#0F172A" font-family="Helvetica" font-size="26.25" lengthAdjust="spacing" textLength="134.2365" x="769.8738" y="289.2755">NotCreated</text><text fill="#0F172A" font-family="Helvetica" font-size="22.5" lengthAdjust="spacing" textLength="230.0867" x="645.0188" y="331.3879">No profile record exists</text><text fill="#0F172A" font-family="Helvetica" font-size="22.5" lengthAdjust="spacing" textLength="143.811" x="645.0188" y="353.8879">in DS-AP-002.</text><text fill="#0F172A" font-family="Helvetica" font-size="22.5" lengthAdjust="spacing" textLength="365.1965" x="645.0188" y="376.3879">Onboarding prompts profile creation.</text></g><g class="entity" data-qualified-name="Active" id="ent0003"><rect fill="#F8FAFC" height="176.25" rx="23.4375" ry="23.4375" style="stroke:#334155;stroke-width:0.9375;" width="325.166" x="674.4188" y="585"/><line style="stroke:#334155;stroke-width:0.9375;" x1="674.4188" x2="999.5848" y1="630" y2="630"/><text fill="#0F172A" font-family="Helvetica" font-size="26.25" lengthAdjust="spacing" textLength="71.4825" x="801.2605" y="614.588">Active</text><text fill="#0F172A" font-family="Helvetica" font-size="22.5" lengthAdjust="spacing" textLength="197.5671" x="683.7938" y="656.7004">Profile record exists</text><text fill="#0F172A" font-family="Helvetica" font-size="22.5" lengthAdjust="spacing" textLength="143.811" x="683.7938" y="679.2004">in DS-AP-002.</text><text fill="#0F172A" font-family="Helvetica" font-size="22.5" lengthAdjust="spacing" textLength="287.666" x="683.7938" y="701.7004">Viewable in allowed contexts</text><text fill="#0F172A" font-family="Helvetica" font-size="22.5" lengthAdjust="spacing" textLength="238.8538" x="683.7938" y="724.2004">(subject to block checks</text><text fill="#0F172A" font-family="Helvetica" font-size="22.5" lengthAdjust="spacing" textLength="202.6208" x="683.7938" y="746.7004">and account status).</text></g><g class="entity" data-qualified-name="Suspended" id="ent0004"><rect fill="#F8FAFC" height="221.25" rx="23.4375" ry="23.4375" style="stroke:#334155;stroke-width:0.9375;" width="368.9905" x="13.125" y="950.625"/><line style="stroke:#334155;stroke-width:0.9375;" x1="13.125" x2="382.1155" y1="995.625" y2="995.625"/><text fill="#0F172A" font-family="Helvetica" font-size="26.25" lengthAdjust="spacing" textLength="132.8265" x="131.207" y="980.213">Suspended</text><text fill="#0F172A" font-family="Helvetica" font-size="22.5" lengthAdjust="spacing" textLength="222.572" x="22.5" y="1022.3254">Derived visibility state.</text><text fill="#0F172A" font-family="Helvetica" font-size="22.5" lengthAdjust="spacing" textLength="236.3159" x="22.5" y="1044.8254">Profile record still exists</text><text fill="#0F172A" font-family="Helvetica" font-size="22.5" lengthAdjust="spacing" textLength="143.811" x="22.5" y="1067.3254">in DS-AP-002.</text><text fill="#0F172A" font-family="Helvetica" font-size="22.5" lengthAdjust="spacing" textLength="297.6855" x="22.5" y="1089.8254">Not viewable because owning</text><text fill="#0F172A" font-family="Helvetica" font-size="22.5" lengthAdjust="spacing" textLength="331.4905" x="22.5" y="1112.3254">account is Suspended or Banned</text><text fill="#0F172A" font-family="Helvetica" font-size="22.5" lengthAdjust="spacing" textLength="143.811" x="22.5" y="1134.8254">in DS-AP-001.</text><text fill="#0F172A" font-family="Helvetica" font-size="22.5" lengthAdjust="spacing" textLength="288.9185" x="22.5" y="1157.3254">Not stored on StudentProfile.</text></g><g class="start_entity" data-qualified-name=".start." data-source-line="131" id="ent0002"><ellipse cx="837" cy="95.625" fill="#222222" rx="18.75" ry="18.75" style="stroke:#222222;stroke-width:1.875;"/></g><g class="end_entity" data-qualified-name=".end." data-source-line="147" id="ent0008"><ellipse cx="1037.625" cy="1061.25" fill="none" rx="20.625" ry="20.625" style="stroke:#222222;stroke-width:1.875;"/><ellipse cx="1037.625" cy="1061.25" fill="#222222" rx="11.25" ry="11.25" style="stroke:#222222;stroke-width:1.875;"/></g><g class="entity" data-qualified-name="GMN2" data-source-line="150" id="ent0003"><path d="M1103.0437,255 L1103.0437,317.8125 L1039.1063,325.3125 L1103.0437,332.8125 L1103.0437,395.625 A0,0 0 0 0 1103.0437,395.625 L1429.6938,395.625 A0,0 0 0 0 1429.6938,395.625 L1429.6938,273.75 L1410.9438,255 L1103.0437,255 A0,0 0 0 0 1103.0437,255" fill="#FEFFDD" style="stroke:#181818;stroke-width:0.9375;"/><path d="M1410.9438,255 L1410.9438,273.75 L1429.6938,273.75 L1410.9438,255" fill="#FEFFDD" style="stroke:#181818;stroke-width:0.9375;"/><text fill="#000000" font-family="Helvetica" font-size="24.375" lengthAdjust="spacing" textLength="168.0066" x="1114.2937" y="283.1442">Entry condition:</text><text fill="#000000" font-family="Helvetica" font-size="24.375" lengthAdjust="spacing" textLength="287.2751" x="1114.2937" y="307.5192">Student account activated,</text><text fill="#000000" font-family="Helvetica" font-size="24.375" lengthAdjust="spacing" textLength="256.1041" x="1114.2937" y="331.8942">onboarding in progress,</text><text fill="#000000" font-family="Helvetica" font-size="24.375" lengthAdjust="spacing" textLength="241.1792" x="1114.2937" y="356.2692">profile not yet created.</text><text fill="#000000" font-family="Helvetica" font-size="24.375" lengthAdjust="spacing" textLength="284.4781" x="1114.2937" y="380.6442">(DUC-AP-04 precondition)</text></g><g class="entity" data-qualified-name="GMN5" data-source-line="158" id="ent0006"><path d="M448.1063,990.9375 L448.1063,1053.75 L382.6312,1061.25 L448.1063,1068.75 L448.1063,1131.5625 A0,0 0 0 0 448.1063,1131.5625 L952.1297,1131.5625 A0,0 0 0 0 952.1297,1131.5625 L952.1297,1009.6875 L933.3797,990.9375 L448.1063,990.9375 A0,0 0 0 0 448.1063,990.9375" fill="#FEFFDD" style="stroke:#181818;stroke-width:0.9375;"/><path d="M933.3797,990.9375 L933.3797,1009.6875 L952.1297,1009.6875 L933.3797,990.9375" fill="#FEFFDD" style="stroke:#181818;stroke-width:0.9375;"/><text fill="#000000" font-family="Helvetica" font-size="24.375" lengthAdjust="spacing" textLength="334.5969" x="459.3563" y="1019.0817">This is a derived visibility state.</text><text fill="#000000" font-family="Helvetica" font-size="24.375" lengthAdjust="spacing" textLength="436.1911" x="459.3563" y="1043.4567">The DS-AP-002 record is NOT modified.</text><text fill="#000000" font-family="Helvetica" font-size="24.375" lengthAdjust="spacing" textLength="407.829" x="459.3563" y="1067.8317">The owning DS-AP-001 account state</text><text fill="#000000" font-family="Helvetica" font-size="24.375" lengthAdjust="spacing" textLength="441.6541" x="459.3563" y="1092.2067">prevents profile exposure in DUC-AP-06.</text><text fill="#000000" font-family="Helvetica" font-size="24.375" lengthAdjust="spacing" textLength="464.6484" x="459.3563" y="1116.5817">(CRUD Matrix: Moderation Consequences)</text></g><g class="entity" data-qualified-name="GMN8" data-source-line="166" id="ent0009"><path d="M1123.7813,990.9375 L1123.7813,1131.5625 L1562.7253,1131.5625 L1562.7253,1009.6875 L1543.9753,990.9375 L1123.7813,990.9375" fill="#FEFFDD" style="stroke:#181818;stroke-width:0.9375;"/><path d="M1543.9753,990.9375 L1543.9753,1009.6875 L1562.7253,1009.6875 L1543.9753,990.9375" fill="#FEFFDD" style="stroke:#181818;stroke-width:1.875;"/><text fill="#000000" font-family="Helvetica" font-size="24.375" lengthAdjust="spacing" textLength="323.8138" x="1135.0313" y="1019.0817">Self-transition: ProfileUpdated</text><text fill="#000000" font-family="Helvetica" font-size="24.375" lengthAdjust="spacing" textLength="262.9001" x="1135.0313" y="1043.4567">updates field values and</text><text fill="#000000" font-family="Helvetica" font-size="24.375" lengthAdjust="spacing" textLength="292.6309" x="1135.0313" y="1067.8317">sets UpdatedAt timestamp.</text><text fill="#000000" font-family="Helvetica" font-size="24.375" lengthAdjust="spacing" textLength="242.4765" x="1135.0313" y="1092.2067">Profile remains Active.</text><text fill="#000000" font-family="Helvetica" font-size="24.375" lengthAdjust="spacing" textLength="399.5691" x="1135.0313" y="1116.5817">(DUC-AP-05, CRUD: RU on AP-002)</text></g><!--link *start* to NotCreated--><g class="link" data-entity-1="ent0002" data-entity-2="ent0002" data-link-type="dependency" data-source-line="131" id="lnk3"><path d="M837,115.2375 C837,145.8187 837,198.675 837,247.725" fill="none" id="*start*-to-NotCreated" style="stroke:#334155;stroke-width:1.875;"/><polygon fill="#334155" points="837,258.975,844.5,242.1,837,249.6,829.5,242.1,837,258.975" style="stroke:#334155;stroke-width:1.875;"/><text fill="#000000" font-family="Helvetica" font-size="24.375" lengthAdjust="spacing" textLength="188.335" x="838.875" y="191.2692">AccountActivated</text></g><!--link NotCreated to Active--><g class="link" data-entity-1="ent0002" data-entity-2="ent0003" data-link-type="dependency" data-source-line="139" id="lnk4"><path d="M837,391.0875 C837,445.5188 837,512.9438 837,573.075" fill="none" id="NotCreated-to-Active" style="stroke:#334155;stroke-width:1.875;"/><polygon fill="#334155" points="837,584.325,844.5,567.45,837,574.95,829.5,567.45,837,584.325" style="stroke:#334155;stroke-width:1.875;"/><text fill="#000000" font-family="Helvetica" font-size="24.375" lengthAdjust="spacing" textLength="155.8072" x="885.6136" y="472.5192">ProfileCreated</text><text fill="#000000" font-family="Helvetica" font-size="24.375" lengthAdjust="spacing" textLength="249.2844" x="838.875" y="496.8942">[mandatory fields valid,</text><text fill="#000000" font-family="Helvetica" font-size="24.375" lengthAdjust="spacing" textLength="196.4639" x="865.2852" y="521.2692">no existing profile]</text></g><!--link Active to Active--><g class="link" data-entity-1="ent0003" data-entity-2="ent0003" data-link-type="dependency" data-source-line="141" id="lnk5"><path d="M1000.0688,639.6 C1037.625,642.4875 1065.2063,653.6625 1065.2063,673.125 C1065.2063,692.5875 1048.8419,702.9001 1011.2856,705.7876" fill="none" id="Active-to-Active" style="stroke:#334155;stroke-width:1.875;"/><polygon fill="#334155" points="1000.0688,706.65,1017.469,712.8343,1009.4162,705.9313,1016.3192,697.8785,1000.0688,706.65" style="stroke:#334155;stroke-width:1.875;"/><text fill="#000000" font-family="Helvetica" font-size="24.375" lengthAdjust="spacing" textLength="161.2463" x="1138.0781" y="655.3317">ProfileUpdated</text><text fill="#000000" font-family="Helvetica" font-size="24.375" lengthAdjust="spacing" textLength="170.744" x="1133.3293" y="679.7067">[fields changed,</text><text fill="#000000" font-family="Helvetica" font-size="24.375" lengthAdjust="spacing" textLength="284.4901" x="1076.4563" y="704.0817">mandatory fields still valid]</text></g><!--link Active to Suspended--><g class="link" data-entity-1="ent0003" data-entity-2="ent0004" data-link-type="dependency" data-source-line="143" id="lnk6"><path d="M673.9875,696.5625 C525,719.5125 319.3125,760.425 261.375,817.5 C226.2563,852.0938 211.5448,892.4368 204.0448,939.0118" fill="none" id="Active-to-Suspended" style="stroke:#334155;stroke-width:1.875;"/><polygon fill="#334155" points="202.2563,950.1188,212.3437,934.6507,203.7467,940.863,197.5345,932.266,202.2563,950.1188" style="stroke:#334155;stroke-width:1.875;"/><text fill="#000000" font-family="Helvetica" font-size="24.375" lengthAdjust="spacing" textLength="294.0591" x="263.25" y="838.1442">OwningAccountSuspended</text><text fill="#000000" font-family="Helvetica" font-size="24.375" lengthAdjust="spacing" textLength="260.1031" x="280.228" y="862.5192">[SM moderation triggers</text><text fill="#000000" font-family="Helvetica" font-size="24.375" lengthAdjust="spacing" textLength="277.7893" x="271.3849" y="886.8942">AP account state change]</text></g><!--link Suspended to Active--><g class="link" data-entity-1="ent0004" data-entity-2="ent0003" data-link-type="dependency" data-source-line="145" id="lnk7"><path d="M382.6875,965.2125 C393.6188,960.1688 404.475,955.275 415.125,950.625 C480.3938,922.1625 505.7438,933.675 565.125,894.375 C604.4438,868.35 602.6813,848.4563 638.25,817.5 C660.0188,798.5437 675.2106,786.2865 699.0419,768.699" fill="none" id="Suspended-to-Active" style="stroke:#334155;stroke-width:1.875;"/><polygon fill="#334155" points="708.0938,762.0188,690.0624,766.0046,700.5505,767.5857,698.9695,778.0738,708.0938,762.0188" style="stroke:#334155;stroke-width:1.875;"/><text fill="#000000" font-family="Helvetica" font-size="24.375" lengthAdjust="spacing" textLength="299.4388" x="640.125" y="850.3317">OwningAccountReactivated</text><text fill="#000000" font-family="Helvetica" font-size="24.375" lengthAdjust="spacing" textLength="195.1071" x="692.2908" y="874.7067">[Future extension]</text></g><!--link Active to *end*--><g class="link" data-entity-1="ent0003" data-entity-2="ent0008" data-link-type="dependency" data-source-line="147" id="lnk9"><path d="M917.2688,761.8313 C931.1062,779.4375 944.4375,798.4313 955.125,817.5 C998.25,894.5438 1021.7336,986.9883 1031.1461,1029.2133" fill="none" id="Active-to-*end*" style="stroke:#334155;stroke-width:1.875;"/><polygon fill="#334155" points="1033.5938,1040.1938,1037.2425,1022.0912,1031.554,1031.0433,1022.6019,1025.3548,1033.5938,1040.1938" style="stroke:#334155;stroke-width:1.875;"/><text fill="#000000" font-family="Helvetica" font-size="24.375" lengthAdjust="spacing" textLength="208.6633" x="992.0438" y="850.3317">&lt;&lt;no terminal state</text><text fill="#000000" font-family="Helvetica" font-size="24.375" lengthAdjust="spacing" textLength="189.668" x="1001.5414" y="874.7067">in current MVP&gt;&gt;</text></g><!--link Active to GMN8--><g class="link" data-entity-1="ent0003" data-entity-2="ent0009" data-link-type="association" data-source-line="166" id="lnk10"><path d="M1000.4438,707.9625 C1073.55,729.3188 1156.7437,763.575 1217.625,817.5 C1269.675,863.625 1303.3688,936.525 1322.625,990.2625" fill="none" id="Active-GMN8" style="stroke:#334155;stroke-width:1.875;stroke-dasharray:13.125,13.125;"/></g><?plantuml-src ZLHDRnen4BtlhnYfbwGAKKYQDa9H9095lOIWV5r23cOzW9jTczfU8Ahwt_kyQs2ND58H1nYFvxrvRyPU-OpftXUIjHzPCrNusq90UARUN5XFVILcLkIq7FBQ9ubxLNeXGi3DXJGhfMSq5PdZsebSA6fVdDGZF1L5vWT6-w78cNvmjcIlKb7BcOZqTMPDeMNFPCRIfq7vgIEMj7udHDVlSYy6tK4ld1WhsSResTcNzlaveW4unau6xM-dNSIwrffLC_5FaZn_Vg5Mwug6nlSi0qzIXxff2YpVJRrQXX1aAAaqaeQ65b51oobe4A-LyswibQR-VQixQfsSd1wFzQsU665bK0uNyeLtsujfgAQCFjuWb92CwgF_AlsaU2KcI4DSP9bPWLcAtc4TaWzSCVd9gITlQ9APz9NIEQUlE15QagYQB5KktE6MmdtX5gnbsMEVBUX8MYgd9YfJ_gqo1T1x19rNMVOHJUY64f7gX5DHE2QpGjeCN28FvMhGCEbQQCsoKQiTQpblR4ZIUwEC7ceM1LltzOndO_sSGmE1EcyqLPn9HqkHANaqrjfKRKI_mgsN98c5_bNpSI5ZpLWfdGizur3h7KWbKmdLB5fN_RPK9WxXzW3rxsyeDnZtScR8MpMRiONStL73JOuCWB0hss3UGBXZiHbqO0mANrY619wr0qoJPbYN3brUGYJFDbTQP1LawLDQM0itwEPfT7ML9Dg02aZEFPbfRNcmZD-rXoWOLQb2Bns4efNRJhQaZd1eTZi47DWoi-nSEDci4i3eZNsrKYoFSNJGV-oLW_C5MRm5EqoWICZdVOfRjN3vOOw1n5VWCVjW2SeitatwPXTmQtZx4AnIi5rkygg1tmrpqxEo5Lv2WTtpmEk5SS6Di0EnbwzbPxsxnpxT28p0kaCtkvde6UtuLy4wPVUkpudntkIXqShH83fdqvQt0bQNFkpDD3AAyfUh1ZXCRe4_66iSEGRNcDd5AwDoHYlv8Z3SFG-vKDf5n8OhvqSKskZGtMDOvKh36kc_?></g></svg>