<svg xmlns="http://www.w3.org/2000/svg" xmlns:xlink="http://www.w3.org/1999/xlink" contentStyleType="text/css" data-diagram-type="SEQUENCE" height="944px" preserveAspectRatio="none" style="width:1819px;height:944px;background:#FFFFFF;" version="1.1" viewBox="0 0 1819 944" width="1819px" zoomAndPan="magnify"><?plantuml 1.2026.3beta6?><defs/><g><g class="title" data-source-line="1"><text fill="#000000" font-family="sans-serif" font-size="14" font-weight="700" lengthAdjust="spacing" textLength="338.8506" x="736.6692" y="27.9951">Manage Join Requests - Sequence Diagram</text></g><rect fill="none" height="177.6016" style="stroke:#000000;stroke-width:1.5;" width="1228.9707" x="574.2183" y="690.2813"/><g class="participant-lifeline" data-entity-uid="part1" data-qualified-name="Host" data-source-line="6" id="part1-lifeline"><g><title>Student Host</title><rect fill="#000000" fill-opacity="0.00000" height="822.2578" width="8" x="49.7188" y="120.8906"/><line style="stroke:#181818;stroke-width:0.5;stroke-dasharray:5,5;" x1="53" x2="53" y1="120.8906" y2="943.1484"/></g></g><g class="participant-lifeline" data-entity-uid="part2" data-qualified-name="UI" data-source-line="7" id="part2-lifeline"><g><title>JoinRequestManagementScreen</title><rect fill="#000000" fill-opacity="0.00000" height="822.2578" width="8" x="347.8813" y="120.8906"/><line style="stroke:#181818;stroke-width:0.5;stroke-dasharray:5,5;" x1="351.0728" x2="351.0728" y1="120.8906" y2="943.1484"/></g></g><g class="participant-lifeline" data-entity-uid="part3" data-qualified-name="Controller" data-source-line="8" id="part3-lifeline"><g><title>HostParticipationController</title><rect fill="#000000" fill-opacity="0.00000" height="822.2578" width="8" x="681.7559" y="120.8906"/><line style="stroke:#181818;stroke-width:0.5;stroke-dasharray:5,5;" x1="685.2183" x2="685.2183" y1="120.8906" y2="943.1484"/></g></g><g class="participant-lifeline" data-entity-uid="part4" data-qualified-name="CapacitySvc" data-source-line="9" id="part4-lifeline"><g><title>ActivityCapacityService</title><rect fill="#000000" fill-opacity="0.00000" height="822.2578" width="8" x="995.9907" y="120.8906"/><line style="stroke:#181818;stroke-width:0.5;stroke-dasharray:5,5;" x1="999.228" x2="999.228" y1="120.8906" y2="943.1484"/></g></g><g class="participant-lifeline" data-entity-uid="part5" data-qualified-name="Activities" data-source-line="10" id="part5-lifeline"><g><title>DS-HL-001</title><rect fill="#000000" fill-opacity="0.00000" height="822.2578" width="8" x="1257.6924" y="120.8906"/><line style="stroke:#181818;stroke-width:0.5;stroke-dasharray:5,5;" x1="1261.2827" x2="1261.2827" y1="120.8906" y2="943.1484"/></g></g><g class="participant-lifeline" data-entity-uid="part6" data-qualified-name="Participations" data-source-line="11" id="part6-lifeline"><g><title>DS-HL-002</title><rect fill="#000000" fill-opacity="0.00000" height="822.2578" width="8" x="1387.2886" y="120.8906"/><line style="stroke:#181818;stroke-width:0.5;stroke-dasharray:5,5;" x1="1391.1021" x2="1391.1021" y1="120.8906" y2="943.1484"/></g></g><g class="participant-lifeline" data-entity-uid="part7" data-qualified-name="Profiles" data-source-line="12" id="part7-lifeline"><g><title>DS-AP-002</title><rect fill="#000000" fill-opacity="0.00000" height="822.2578" width="8" x="1531.2983" y="120.8906"/><line style="stroke:#181818;stroke-width:0.5;stroke-dasharray:5,5;" x1="1534.4751" x2="1534.4751" y1="120.8906" y2="943.1484"/></g></g><g class="participant-lifeline" data-entity-uid="part8" data-qualified-name="Events" data-source-line="13" id="part8-lifeline"><g><title>Internal Event Dispatcher</title><rect fill="#000000" fill-opacity="0.00000" height="822.2578" width="8" x="1692.6553" y="120.8906"/><line style="stroke:#181818;stroke-width:0.5;stroke-dasharray:5,5;" x1="1696.1216" x2="1696.1216" y1="120.8906" y2="943.1484"/></g></g><g class="participant participant-head" data-entity-uid="part1" data-qualified-name="Host" data-source-line="6" id="part1-head"><text fill="#000000" font-family="sans-serif" font-size="14" lengthAdjust="spacing" textLength="91.4375" x="5" y="117.5889">Student Host</text><ellipse cx="53.7188" cy="53.0938" fill="#E2E2F0" rx="8" ry="8" style="stroke:#181818;stroke-width:0.5;"/><path d="M53.7188,61.0938 L53.7188,88.0938 M40.7188,69.0938 L66.7188,69.0938 M53.7188,88.0938 L40.7188,103.0938 M53.7188,88.0938 L66.7188,103.0938" fill="none" style="stroke:#181818;stroke-width:0.5;"/></g><g class="participant participant-head" data-entity-uid="part2" data-qualified-name="UI" data-source-line="7" id="part2-head"><rect fill="#E2E2F0" height="30.2969" rx="2.5" ry="2.5" style="stroke:#181818;stroke-width:0.5;" width="237.6172" x="233.0728" y="89.5938"/><text fill="#000000" font-family="sans-serif" font-size="14" lengthAdjust="spacing" textLength="223.6172" x="240.0728" y="109.5889">JoinRequestManagementScreen</text></g><g class="participant participant-head" data-entity-uid="part3" data-qualified-name="Controller" data-source-line="8" id="part3-head"><rect fill="#E2E2F0" height="30.2969" rx="2.5" ry="2.5" style="stroke:#181818;stroke-width:0.5;" width="203.0752" x="584.2183" y="89.5938"/><text fill="#000000" font-family="sans-serif" font-size="14" lengthAdjust="spacing" textLength="189.0752" x="591.2183" y="109.5889">HostParticipationController</text></g><g class="participant participant-head" data-entity-uid="part4" data-qualified-name="CapacitySvc" data-source-line="9" id="part4-head"><rect fill="#E2E2F0" height="30.2969" rx="2.5" ry="2.5" style="stroke:#181818;stroke-width:0.5;" width="179.5254" x="910.228" y="89.5938"/><text fill="#000000" font-family="sans-serif" font-size="14" lengthAdjust="spacing" textLength="165.5254" x="917.228" y="109.5889">ActivityCapacityService</text></g><g class="participant participant-head" data-entity-uid="part5" data-qualified-name="Activities" data-source-line="10" id="part5-head"><text fill="#000000" font-family="sans-serif" font-size="14" lengthAdjust="spacing" textLength="74.8193" x="1221.2827" y="101.292">DS-HL-001</text><text fill="#000000" font-family="sans-serif" font-size="14" lengthAdjust="spacing" textLength="64.1143" x="1226.6353" y="117.5889">Activities</text><path d="M1243.6924,52.2969 C1243.6924,42.2969 1261.6924,42.2969 1261.6924,42.2969 C1261.6924,42.2969 1279.6924,42.2969 1279.6924,52.2969 L1279.6924,78.2969 C1279.6924,88.2969 1261.6924,88.2969 1261.6924,88.2969 C1261.6924,88.2969 1243.6924,88.2969 1243.6924,78.2969 L1243.6924,52.2969" fill="#E2E2F0" style="stroke:#181818;stroke-width:0.5;"/><path d="M1243.6924,52.2969 C1243.6924,62.2969 1261.6924,62.2969 1261.6924,62.2969 C1261.6924,62.2969 1279.6924,62.2969 1279.6924,52.2969" fill="none" style="stroke:#181818;stroke-width:0.5;"/></g><g class="participant participant-head" data-entity-uid="part6" data-qualified-name="Participations" data-source-line="11" id="part6-head"><text fill="#000000" font-family="sans-serif" font-size="14" lengthAdjust="spacing" textLength="74.8193" x="1350.8789" y="101.292">DS-HL-002</text><text fill="#000000" font-family="sans-serif" font-size="14" lengthAdjust="spacing" textLength="152.373" x="1312.1021" y="117.5889">Activity Participations</text><path d="M1373.2886,52.2969 C1373.2886,42.2969 1391.2886,42.2969 1391.2886,42.2969 C1391.2886,42.2969 1409.2886,42.2969 1409.2886,52.2969 L1409.2886,78.2969 C1409.2886,88.2969 1391.2886,88.2969 1391.2886,88.2969 C1391.2886,88.2969 1373.2886,88.2969 1373.2886,78.2969 L1373.2886,52.2969" fill="#E2E2F0" style="stroke:#181818;stroke-width:0.5;"/><path d="M1373.2886,52.2969 C1373.2886,62.2969 1391.2886,62.2969 1391.2886,62.2969 C1391.2886,62.2969 1409.2886,62.2969 1409.2886,52.2969" fill="none" style="stroke:#181818;stroke-width:0.5;"/></g><g class="participant participant-head" data-entity-uid="part7" data-qualified-name="Profiles" data-source-line="12" id="part7-head"><text fill="#000000" font-family="sans-serif" font-size="14" lengthAdjust="spacing" textLength="74.5117" x="1495.0425" y="101.292">DS-AP-002</text><text fill="#000000" font-family="sans-serif" font-size="14" lengthAdjust="spacing" textLength="103.6465" x="1480.4751" y="117.5889">Student Profile</text><path d="M1517.2983,52.2969 C1517.2983,42.2969 1535.2983,42.2969 1535.2983,42.2969 C1535.2983,42.2969 1553.2983,42.2969 1553.2983,52.2969 L1553.2983,78.2969 C1553.2983,88.2969 1535.2983,88.2969 1535.2983,88.2969 C1535.2983,88.2969 1517.2983,88.2969 1517.2983,78.2969 L1517.2983,52.2969" fill="#E2E2F0" style="stroke:#181818;stroke-width:0.5;"/><path d="M1517.2983,52.2969 C1517.2983,62.2969 1535.2983,62.2969 1535.2983,62.2969 C1535.2983,62.2969 1553.2983,62.2969 1553.2983,52.2969" fill="none" style="stroke:#181818;stroke-width:0.5;"/></g><g class="participant participant-head" data-entity-uid="part8" data-qualified-name="Events" data-source-line="13" id="part8-head"><rect fill="#E2E2F0" height="30.2969" rx="2.5" ry="2.5" style="stroke:#181818;stroke-width:0.5;" width="193.0674" x="1600.1216" y="89.5938"/><text fill="#000000" font-family="sans-serif" font-size="14" lengthAdjust="spacing" textLength="179.0674" x="1607.1216" y="109.5889">Internal Event Dispatcher</text></g><rect fill="#EEEEEE" height="3" style="stroke:#EEEEEE;stroke-width:1;" width="1813.189" x="0" y="151.457"/><line style="stroke:#000000;stroke-width:1;" x1="0" x2="1813.189" y1="151.457" y2="151.457"/><line style="stroke:#000000;stroke-width:1;" x1="0" x2="1813.189" y1="154.457" y2="154.457"/><rect fill="#EEEEEE" height="23.1328" style="stroke:#000000;stroke-width:2;" width="209.2476" x="801.9707" y="140.8906"/><text fill="#000000" font-family="sans-serif" font-size="13" font-weight="700" lengthAdjust="spacing" textLength="190.7217" x="807.9707" y="156.9575">1. View Pending Requests</text><g class="message" data-entity-1="part1" data-entity-2="part2" data-source-line="17" id="msg1"><polygon fill="#181818" points="339.8813,191.1563,349.8813,195.1563,339.8813,199.1563,343.8813,195.1563" style="stroke:#181818;stroke-width:1;"/><line style="stroke:#181818;stroke-width:1;" x1="53.7188" x2="345.8813" y1="195.1563" y2="195.1563"/><text fill="#000000" font-family="sans-serif" font-size="13" font-weight="700" lengthAdjust="spacing" textLength="9.0454" x="60.7188" y="190.0903">1</text><text fill="#000000" font-family="sans-serif" font-size="13" lengthAdjust="spacing" textLength="224.3071" x="73.7642" y="190.0903">open pending requests (activityId)</text></g><g class="message" data-entity-1="part2" data-entity-2="part3" data-source-line="18" id="msg2"><polygon fill="#181818" points="673.7559,220.2891,683.7559,224.2891,673.7559,228.2891,677.7559,224.2891" style="stroke:#181818;stroke-width:1;"/><line style="stroke:#181818;stroke-width:1;" x1="351.8813" x2="679.7559" y1="224.2891" y2="224.2891"/><text fill="#000000" font-family="sans-serif" font-size="13" font-weight="700" lengthAdjust="spacing" textLength="9.0454" x="358.8813" y="219.2231">2</text><text fill="#000000" font-family="sans-serif" font-size="13" lengthAdjust="spacing" textLength="252.5034" x="371.9268" y="219.2231">getPendingRequests(activityId, hostId)</text></g><g class="message" data-entity-1="part3" data-entity-2="part5" data-source-line="19" id="msg3"><polygon fill="#181818" points="1249.6924,249.4219,1259.6924,253.4219,1249.6924,257.4219,1253.6924,253.4219" style="stroke:#181818;stroke-width:1;"/><line style="stroke:#181818;stroke-width:1;" x1="685.7559" x2="1255.6924" y1="253.4219" y2="253.4219"/><text fill="#000000" font-family="sans-serif" font-size="13" font-weight="700" lengthAdjust="spacing" textLength="9.0454" x="692.7559" y="248.356">3</text><text fill="#000000" font-family="sans-serif" font-size="13" lengthAdjust="spacing" textLength="218.2769" x="705.8013" y="248.356">read activity state &amp; verify hostId</text></g><g class="message" data-entity-1="part5" data-entity-2="part3" data-source-line="20" id="msg4"><polygon fill="#181818" points="696.7559,278.5547,686.7559,282.5547,696.7559,286.5547,692.7559,282.5547" style="stroke:#181818;stroke-width:1;"/><line style="stroke:#181818;stroke-width:1;stroke-dasharray:2,2;" x1="690.7559" x2="1260.6924" y1="282.5547" y2="282.5547"/><text fill="#000000" font-family="sans-serif" font-size="13" font-weight="700" lengthAdjust="spacing" textLength="9.0454" x="702.7559" y="277.4888">4</text><text fill="#000000" font-family="sans-serif" font-size="13" lengthAdjust="spacing" textLength="69.5259" x="715.8013" y="277.4888">authorized</text></g><g class="message" data-entity-1="part3" data-entity-2="part6" data-source-line="21" id="msg5"><polygon fill="#181818" points="1379.2886,307.6875,1389.2886,311.6875,1379.2886,315.6875,1383.2886,311.6875" style="stroke:#181818;stroke-width:1;"/><line style="stroke:#181818;stroke-width:1;" x1="685.7559" x2="1385.2886" y1="311.6875" y2="311.6875"/><text fill="#000000" font-family="sans-serif" font-size="13" font-weight="700" lengthAdjust="spacing" textLength="9.0454" x="692.7559" y="306.6216">5</text><text fill="#000000" font-family="sans-serif" font-size="13" lengthAdjust="spacing" textLength="233.2891" x="705.8013" y="306.6216">read pending requests for activityId</text></g><g class="message" data-entity-1="part6" data-entity-2="part3" data-source-line="22" id="msg6"><polygon fill="#181818" points="696.7559,336.8203,686.7559,340.8203,696.7559,344.8203,692.7559,340.8203" style="stroke:#181818;stroke-width:1;"/><line style="stroke:#181818;stroke-width:1;stroke-dasharray:2,2;" x1="690.7559" x2="1390.2886" y1="340.8203" y2="340.8203"/><text fill="#000000" font-family="sans-serif" font-size="13" font-weight="700" lengthAdjust="spacing" textLength="9.0454" x="702.7559" y="335.7544">6</text><text fill="#000000" font-family="sans-serif" font-size="13" lengthAdjust="spacing" textLength="145.6787" x="715.8013" y="335.7544">list of pending records</text></g><g class="message" data-entity-1="part3" data-entity-2="part7" data-source-line="23" id="msg7"><polygon fill="#181818" points="1523.2983,365.9531,1533.2983,369.9531,1523.2983,373.9531,1527.2983,369.9531" style="stroke:#181818;stroke-width:1;"/><line style="stroke:#181818;stroke-width:1;" x1="685.7559" x2="1529.2983" y1="369.9531" y2="369.9531"/><text fill="#000000" font-family="sans-serif" font-size="13" font-weight="700" lengthAdjust="spacing" textLength="9.0454" x="692.7559" y="364.8872">7</text><text fill="#000000" font-family="sans-serif" font-size="13" lengthAdjust="spacing" textLength="249.3486" x="705.8013" y="364.8872">read minimal profiles for applicant IDs</text></g><g class="message" data-entity-1="part7" data-entity-2="part3" data-source-line="24" id="msg8"><polygon fill="#181818" points="696.7559,395.0859,686.7559,399.0859,696.7559,403.0859,692.7559,399.0859" style="stroke:#181818;stroke-width:1;"/><line style="stroke:#181818;stroke-width:1;stroke-dasharray:2,2;" x1="690.7559" x2="1534.2983" y1="399.0859" y2="399.0859"/><text fill="#000000" font-family="sans-serif" font-size="13" font-weight="700" lengthAdjust="spacing" textLength="9.0454" x="702.7559" y="394.02">8</text><text fill="#000000" font-family="sans-serif" font-size="13" lengthAdjust="spacing" textLength="112.3979" x="715.8013" y="394.02">applicant profiles</text></g><g class="message" data-entity-1="part3" data-entity-2="part2" data-source-line="25" id="msg9"><polygon fill="#181818" points="362.8813,424.2188,352.8813,428.2188,362.8813,432.2188,358.8813,428.2188" style="stroke:#181818;stroke-width:1;"/><line style="stroke:#181818;stroke-width:1;stroke-dasharray:2,2;" x1="356.8813" x2="684.7559" y1="428.2188" y2="428.2188"/><text fill="#000000" font-family="sans-serif" font-size="13" font-weight="700" lengthAdjust="spacing" textLength="9.0454" x="368.8813" y="423.1528">9</text><text fill="#000000" font-family="sans-serif" font-size="13" lengthAdjust="spacing" textLength="150.3696" x="381.9268" y="423.1528">render list with profiles</text></g><g class="message" data-entity-1="part2" data-entity-2="part1" data-source-line="26" id="msg10"><polygon fill="#181818" points="64.7188,453.3516,54.7188,457.3516,64.7188,461.3516,60.7188,457.3516" style="stroke:#181818;stroke-width:1;"/><line style="stroke:#181818;stroke-width:1;stroke-dasharray:2,2;" x1="58.7188" x2="350.8813" y1="457.3516" y2="457.3516"/><text fill="#000000" font-family="sans-serif" font-size="13" font-weight="700" lengthAdjust="spacing" textLength="18.0908" x="70.7188" y="452.2856">10</text><text fill="#000000" font-family="sans-serif" font-size="13" lengthAdjust="spacing" textLength="106.7676" x="92.8096" y="452.2856">display requests</text></g><rect fill="#EEEEEE" height="3" style="stroke:#EEEEEE;stroke-width:1;" width="1813.189" x="0" y="485.918"/><line style="stroke:#000000;stroke-width:1;" x1="0" x2="1813.189" y1="485.918" y2="485.918"/><line style="stroke:#000000;stroke-width:1;" x1="0" x2="1813.189" y1="488.918" y2="488.918"/><rect fill="#EEEEEE" height="23.1328" style="stroke:#000000;stroke-width:2;" width="160.5801" x="826.3044" y="475.3516"/><text fill="#000000" font-family="sans-serif" font-size="13" font-weight="700" lengthAdjust="spacing" textLength="142.0542" x="832.3044" y="491.4185">2. Process Decision</text><g class="message" data-entity-1="part1" data-entity-2="part2" data-source-line="30" id="msg11"><polygon fill="#181818" points="339.8813,525.6172,349.8813,529.6172,339.8813,533.6172,343.8813,529.6172" style="stroke:#181818;stroke-width:1;"/><line style="stroke:#181818;stroke-width:1;" x1="53.7188" x2="345.8813" y1="529.6172" y2="529.6172"/><text fill="#000000" font-family="sans-serif" font-size="13" font-weight="700" lengthAdjust="spacing" textLength="18.0908" x="60.7188" y="524.5513">11</text><text fill="#000000" font-family="sans-serif" font-size="13" lengthAdjust="spacing" textLength="252.0718" x="82.8096" y="524.5513">decide(requestId, "approve"|"decline")</text></g><g class="message" data-entity-1="part2" data-entity-2="part3" data-source-line="31" id="msg12"><polygon fill="#181818" points="673.7559,554.75,683.7559,558.75,673.7559,562.75,677.7559,558.75" style="stroke:#181818;stroke-width:1;"/><line style="stroke:#181818;stroke-width:1;" x1="351.8813" x2="679.7559" y1="558.75" y2="558.75"/><text fill="#000000" font-family="sans-serif" font-size="13" font-weight="700" lengthAdjust="spacing" textLength="18.0908" x="358.8813" y="553.6841">12</text><text fill="#000000" font-family="sans-serif" font-size="13" lengthAdjust="spacing" textLength="287.7837" x="380.9722" y="553.6841">processDecision(requestId, decision, hostId)</text></g><g class="message" data-entity-1="part3" data-entity-2="part4" data-source-line="33" id="msg13"><polygon fill="#181818" points="987.9907,583.8828,997.9907,587.8828,987.9907,591.8828,991.9907,587.8828" style="stroke:#181818;stroke-width:1;"/><line style="stroke:#181818;stroke-width:1;" x1="685.7559" x2="993.9907" y1="587.8828" y2="587.8828"/><text fill="#000000" font-family="sans-serif" font-size="13" font-weight="700" lengthAdjust="spacing" textLength="18.0908" x="692.7559" y="582.8169">13</text><text fill="#000000" font-family="sans-serif" font-size="13" lengthAdjust="spacing" textLength="268.144" x="714.8467" y="582.8169">verifyCapacityAndAuth(activityId, hostId)</text></g><g class="message" data-entity-1="part4" data-entity-2="part5" data-source-line="34" id="msg14"><polygon fill="#181818" points="1249.6924,613.0156,1259.6924,617.0156,1249.6924,621.0156,1253.6924,617.0156" style="stroke:#181818;stroke-width:1;"/><line style="stroke:#181818;stroke-width:1;" x1="999.9907" x2="1255.6924" y1="617.0156" y2="617.0156"/><text fill="#000000" font-family="sans-serif" font-size="13" font-weight="700" lengthAdjust="spacing" textLength="18.0908" x="1006.9907" y="611.9497">14</text><text fill="#000000" font-family="sans-serif" font-size="13" lengthAdjust="spacing" textLength="215.6108" x="1029.0815" y="611.9497">read capacity limits &amp; headcount</text></g><g class="message" data-entity-1="part5" data-entity-2="part4" data-source-line="35" id="msg15"><polygon fill="#181818" points="1010.9907,642.1484,1000.9907,646.1484,1010.9907,650.1484,1006.9907,646.1484" style="stroke:#181818;stroke-width:1;"/><line style="stroke:#181818;stroke-width:1;stroke-dasharray:2,2;" x1="1004.9907" x2="1260.6924" y1="646.1484" y2="646.1484"/><text fill="#000000" font-family="sans-serif" font-size="13" font-weight="700" lengthAdjust="spacing" textLength="18.0908" x="1016.9907" y="641.0825">15</text><text fill="#000000" font-family="sans-serif" font-size="13" lengthAdjust="spacing" textLength="90.1494" x="1039.0815" y="641.0825">capacity valid</text></g><g class="message" data-entity-1="part4" data-entity-2="part3" data-source-line="36" id="msg16"><polygon fill="#181818" points="696.7559,671.2813,686.7559,675.2813,696.7559,679.2813,692.7559,675.2813" style="stroke:#181818;stroke-width:1;"/><line style="stroke:#181818;stroke-width:1;stroke-dasharray:2,2;" x1="690.7559" x2="998.9907" y1="675.2813" y2="675.2813"/><text fill="#000000" font-family="sans-serif" font-size="13" font-weight="700" lengthAdjust="spacing" textLength="18.0908" x="702.7559" y="670.2153">16</text><text fill="#000000" font-family="sans-serif" font-size="13" lengthAdjust="spacing" textLength="88.207" x="724.8467" y="670.2153">check passed</text></g><path d="M574.2183,690.2813 L638.6611,690.2813 L638.6611,697.4141 L628.6611,707.4141 L574.2183,707.4141 L574.2183,690.2813" fill="#EEEEEE" style="stroke:#000000;stroke-width:1.5;"/><rect fill="none" height="177.6016" style="stroke:#000000;stroke-width:1.5;" width="1228.9707" x="574.2183" y="690.2813"/><text fill="#000000" font-family="sans-serif" font-size="13" font-weight="700" lengthAdjust="spacing" textLength="19.4429" x="589.2183" y="703.3481">alt</text><text fill="#000000" font-family="sans-serif" font-size="11" font-weight="700" lengthAdjust="spacing" textLength="149.7246" x="653.6611" y="702.4917">[decision == "approve"]</text><g class="message" data-entity-1="part3" data-entity-2="part6" data-source-line="39" id="msg17"><polygon fill="#181818" points="1379.2886,724.5469,1389.2886,728.5469,1379.2886,732.5469,1383.2886,728.5469" style="stroke:#181818;stroke-width:1;"/><line style="stroke:#181818;stroke-width:1;" x1="685.7559" x2="1385.2886" y1="728.5469" y2="728.5469"/><text fill="#000000" font-family="sans-serif" font-size="13" font-weight="700" lengthAdjust="spacing" textLength="18.0908" x="692.7559" y="723.481">17</text><text fill="#000000" font-family="sans-serif" font-size="13" lengthAdjust="spacing" textLength="174.8271" x="714.8467" y="723.481">update status = confirmed</text></g><g class="message" data-entity-1="part3" data-entity-2="part5" data-source-line="40" id="msg18"><polygon fill="#181818" points="1249.6924,753.6797,1259.6924,757.6797,1249.6924,761.6797,1253.6924,757.6797" style="stroke:#181818;stroke-width:1;"/><line style="stroke:#181818;stroke-width:1;" x1="685.7559" x2="1255.6924" y1="757.6797" y2="757.6797"/><text fill="#000000" font-family="sans-serif" font-size="13" font-weight="700" lengthAdjust="spacing" textLength="18.0908" x="692.7559" y="752.6138">18</text><text fill="#000000" font-family="sans-serif" font-size="13" lengthAdjust="spacing" textLength="228.5918" x="714.8467" y="752.6138">increment CurrentParticipantCount</text></g><g class="message" data-entity-1="part3" data-entity-2="part8" data-source-line="41" id="msg19"><polygon fill="#181818" points="1684.6553,782.8125,1694.6553,786.8125,1684.6553,790.8125,1688.6553,786.8125" style="stroke:#181818;stroke-width:1;"/><line style="stroke:#181818;stroke-width:1;" x1="685.7559" x2="1690.6553" y1="786.8125" y2="786.8125"/><text fill="#000000" font-family="sans-serif" font-size="13" font-weight="700" lengthAdjust="spacing" textLength="18.0908" x="692.7559" y="781.7466">19</text><text fill="#000000" font-family="sans-serif" font-size="13" lengthAdjust="spacing" textLength="173.1704" x="714.8467" y="781.7466">emit JoinRequestApproved</text></g><line style="stroke:#000000;stroke-width:1;stroke-dasharray:2,2;" x1="574.2183" x2="1803.189" y1="795.8125" y2="795.8125"/><text fill="#000000" font-family="sans-serif" font-size="11" font-weight="700" lengthAdjust="spacing" textLength="143.6284" x="579.2183" y="806.0229">[decision == "decline"]</text><g class="message" data-entity-1="part3" data-entity-2="part6" data-source-line="43" id="msg20"><polygon fill="#181818" points="1379.2886,826.75,1389.2886,830.75,1379.2886,834.75,1383.2886,830.75" style="stroke:#181818;stroke-width:1;"/><line style="stroke:#181818;stroke-width:1;" x1="685.7559" x2="1385.2886" y1="830.75" y2="830.75"/><text fill="#000000" font-family="sans-serif" font-size="13" font-weight="700" lengthAdjust="spacing" textLength="18.0908" x="692.7559" y="825.6841">20</text><text fill="#000000" font-family="sans-serif" font-size="13" lengthAdjust="spacing" textLength="164.1504" x="714.8467" y="825.6841">update status = declined</text></g><g class="message" data-entity-1="part3" data-entity-2="part8" data-source-line="44" id="msg21"><polygon fill="#181818" points="1684.6553,855.8828,1694.6553,859.8828,1684.6553,863.8828,1688.6553,859.8828" style="stroke:#181818;stroke-width:1;"/><line style="stroke:#181818;stroke-width:1;" x1="685.7559" x2="1690.6553" y1="859.8828" y2="859.8828"/><text fill="#000000" font-family="sans-serif" font-size="13" font-weight="700" lengthAdjust="spacing" textLength="18.0908" x="692.7559" y="854.8169">21</text><text fill="#000000" font-family="sans-serif" font-size="13" lengthAdjust="spacing" textLength="167.4004" x="714.8467" y="854.8169">emit JoinRequestDeclined</text></g><g class="message" data-entity-1="part3" data-entity-2="part2" data-source-line="47" id="msg22"><polygon fill="#181818" points="362.8813,892.0156,352.8813,896.0156,362.8813,900.0156,358.8813,896.0156" style="stroke:#181818;stroke-width:1;"/><line style="stroke:#181818;stroke-width:1;stroke-dasharray:2,2;" x1="356.8813" x2="684.7559" y1="896.0156" y2="896.0156"/><text fill="#000000" font-family="sans-serif" font-size="13" font-weight="700" lengthAdjust="spacing" textLength="18.0908" x="368.8813" y="890.9497">22</text><text fill="#000000" font-family="sans-serif" font-size="13" lengthAdjust="spacing" textLength="116.0098" x="390.9722" y="890.9497">decision recorded</text></g><g class="message" data-entity-1="part2" data-entity-2="part1" data-source-line="48" id="msg23"><polygon fill="#181818" points="64.7188,921.1484,54.7188,925.1484,64.7188,929.1484,60.7188,925.1484" style="stroke:#181818;stroke-width:1;"/><line style="stroke:#181818;stroke-width:1;stroke-dasharray:2,2;" x1="58.7188" x2="350.8813" y1="925.1484" y2="925.1484"/><text fill="#000000" font-family="sans-serif" font-size="13" font-weight="700" lengthAdjust="spacing" textLength="18.0908" x="70.7188" y="920.0825">23</text><text fill="#000000" font-family="sans-serif" font-size="13" lengthAdjust="spacing" textLength="115.0132" x="92.8096" y="920.0825">show updated list</text></g><?plantuml-src dLHDYzim4BthLmm-B5jebjqz1b88IM5JMWWDsrClMcaI3xKbLvApJUcFxyYMOpiE2sqkiKRpvkFD6mKA1S8NQUG1uPCb0r_nPuq-U9Z1BduQXR0cUN2o528dZR2tDhpONqBMmPgwV44dX5J1EiXseTPe0ZnP7pAGllaGbNI155MIRxAO9ELeqvOCs2c7Q1h4ysRi7oDiEqCWQrRM16UB0btZtn_7kAKATAHmMibAAlxVeJkImXRJsOvAQ1daY_G8sNetU_eykxz_-6uIcD0t_ltnYllZsVq4eq9RxDWqnY-tBRwZRUlidegsnlJjnrrjJ41dP04VZn6m9i-1LPwuQ8nUYCK27kxW6-4hRD5eCeT-h8k5495Jc7rWhkTWApHG9I_NUTtArD96lnFFc-ZS4ps70uOKk8ix0Bo7dED7O0-90NeMvvn8QkWWu8CC23TmH4VxKuABtXzc5_bPUhbrz1lrHOunsodFfBizQxMlLun1asG5CLjsFmYZhDF-CdEQLyfPag6IvrGbSvkpgWfISP2RjHSTOjhTsQr3ZtAbmJakXuzDTQyKyjuvpekTufJde5aYXJoTcs_KyNWNwrNeFQnHaUU-9yBGVA7nDk7YM3CkpDaZPdyolYp8O7PD75KRkGiyZA2JhPV81Ok3pPmdENIcfT5B7ljreVMmgqfJwPxPAea5S0CvcvMjJPZ8R5Z16NUK1UbncekkUGdL3wYazonA8OjmRfQPxQaJmB-tDLjNEgv3N8gQznMKDNjo9OUTOeUTak5NDBwciAeTgwD_DarODQrEyUsBCGTaMc3mD2_RShN0Wj-gKIVTwF-ZamJL_r38keEmsiMrDJZNrgubUuxaxtFxckhGpQxy1G00?></g></svg>