<?plantuml 1.2026.2?><svg xmlns="http://www.w3.org/2000/svg" xmlns:xlink="http://www.w3.org/1999/xlink" contentStyleType="text/css" data-diagram-type="SEQUENCE" height="992px" preserveAspectRatio="none" style="width:2053px;height:992px;background:#FFFFFF;" version="1.1" viewBox="0 0 2053 992" width="2053px" zoomAndPan="magnify"><title>Configure New Campus - Sequence Diagram v1.1</title><defs/><g><text fill="#000000" font-family="sans-serif" font-size="14" font-weight="bold" lengthAdjust="spacing" textLength="367.5273" x="843.9521" y="28.5352">Configure New Campus - Sequence Diagram v1.1</text><rect fill="none" height="648.4316" style="stroke:#000000;stroke-width:1.5;" width="2036.4316" x="10" y="254.5293"/><rect fill="none" height="367.6816" style="stroke:#000000;stroke-width:1.5;" width="2016.4316" x="20" y="528.2793"/><g class="participant-lifeline" data-entity-uid="part1" data-qualified-name="Admin" id="part1-lifeline"><g><title>Campus Admin</title><rect fill="#000000" fill-opacity="0.00000" height="866.916" width="8" x="80.9155" y="118.9766"/><line style="stroke:#181818;stroke-width:0.5;stroke-dasharray:5,5;" x1="84" x2="84" y1="118.9766" y2="985.8926"/></g></g><g class="participant-lifeline" data-entity-uid="part2" data-qualified-name="SetupUI" id="part2-lifeline"><g><title>CampusSetupWizardScreen</title><rect fill="#000000" fill-opacity="0.00000" height="866.916" width="8" x="327.1289" y="118.9766"/><line style="stroke:#181818;stroke-width:0.5;stroke-dasharray:5,5;" x1="331.0044" x2="331.0044" y1="118.9766" y2="985.8926"/></g></g><g class="participant-lifeline" data-entity-uid="part3" data-qualified-name="Controller" id="part3-lifeline"><g><title>CampusConfigurationController</title><rect fill="#000000" fill-opacity="0.00000" height="866.916" width="8" x="733.1128" y="118.9766"/><line style="stroke:#181818;stroke-width:0.5;stroke-dasharray:5,5;" x1="736.6606" x2="736.6606" y1="118.9766" y2="985.8926"/></g></g><g class="participant-lifeline" data-entity-uid="part4" data-qualified-name="Authorization" id="part4-lifeline"><g><title>CampusAuthorizationService</title><rect fill="#000000" fill-opacity="0.00000" height="866.916" width="8" x="995.4849" y="118.9766"/><line style="stroke:#181818;stroke-width:0.5;stroke-dasharray:5,5;" x1="998.7686" x2="998.7686" y1="118.9766" y2="985.8926"/></g></g><g class="participant-lifeline" data-entity-uid="part5" data-qualified-name="CampusService" id="part5-lifeline"><g><title>CampusConfigurationService</title><rect fill="#000000" fill-opacity="0.00000" height="866.916" width="8" x="1207.2388" y="118.9766"/><line style="stroke:#181818;stroke-width:0.5;stroke-dasharray:5,5;" x1="1211.2012" x2="1211.2012" y1="118.9766" y2="985.8926"/></g></g><g class="participant-lifeline" data-entity-uid="part6" data-qualified-name="OptionsService" id="part6-lifeline"><g><title>CampusOptionsService</title><rect fill="#000000" fill-opacity="0.00000" height="866.916" width="8" x="1399.2026" y="118.9766"/><line style="stroke:#181818;stroke-width:0.5;stroke-dasharray:5,5;" x1="1402.2764" x2="1402.2764" y1="118.9766" y2="985.8926"/></g></g><g class="participant-lifeline" data-entity-uid="part7" data-qualified-name="CampusStore" id="part7-lifeline"><g><title>DS-CA-001 Campus Configuration</title><rect fill="#000000" fill-opacity="0.00000" height="866.916" width="8" x="1611.9956" y="118.9766"/><line style="stroke:#181818;stroke-width:0.5;stroke-dasharray:5,5;" x1="1615.1289" x2="1615.1289" y1="118.9766" y2="985.8926"/></g></g><g class="participant-lifeline" data-entity-uid="part8" data-qualified-name="OptionsStore" id="part8-lifeline"><g><title>DS-CA-002 Campus Structured Options</title><rect fill="#000000" fill-opacity="0.00000" height="866.916" width="8" x="1883.147" y="118.9766"/><line style="stroke:#181818;stroke-width:0.5;stroke-dasharray:5,5;" x1="1886.8623" x2="1886.8623" y1="118.9766" y2="985.8926"/></g></g><g class="participant participant-head" data-entity-uid="part1" data-qualified-name="Admin" id="part1-head"><text fill="#000000" font-family="sans-serif" font-size="14" lengthAdjust="spacing" textLength="103.8311" x="30" y="116.0234">Campus Admin</text><ellipse cx="84.9155" cy="50.9883" fill="#E2E2F0" rx="8" ry="8" style="stroke:#181818;stroke-width:0.5;"/><path d="M84.9155,58.9883 L84.9155,85.9883 M71.9155,66.9883 L97.9155,66.9883 M84.9155,85.9883 L71.9155,100.9883 M84.9155,85.9883 L97.9155,100.9883" fill="none" style="stroke:#181818;stroke-width:0.5;"/></g><g class="participant participant-head" data-entity-uid="part2" data-qualified-name="SetupUI" id="part2-head"><text fill="#000000" font-family="sans-serif" font-size="14" lengthAdjust="spacing" textLength="184.249" x="236.0044" y="116.0234">CampusSetupWizardScreen</text><path d="M310.6289,74.4883 L310.6289,98.4883 M310.6289,86.4883 L327.6289,86.4883" fill="none" style="stroke:#181818;stroke-width:0.5;"/><ellipse cx="339.6289" cy="86.4883" fill="#E2E2F0" rx="12" ry="12" style="stroke:#181818;stroke-width:0.5;"/></g><g class="participant participant-head" data-entity-uid="part3" data-qualified-name="Controller" id="part3-head"><text fill="#000000" font-family="sans-serif" font-size="14" lengthAdjust="spacing" textLength="216.9043" x="625.6606" y="116.0234">CampusConfigurationController</text><ellipse cx="737.1128" cy="86.4883" fill="#E2E2F0" rx="12" ry="12" style="stroke:#181818;stroke-width:0.5;"/><polygon fill="#181818" points="733.1128,74.4883,739.1128,69.4883,737.1128,74.4883,739.1128,79.4883,733.1128,74.4883" style="stroke:#181818;stroke-width:1;"/></g><g class="participant participant-head" data-entity-uid="part4" data-qualified-name="Authorization" id="part4-head"><text fill="#000000" font-family="sans-serif" font-size="14" lengthAdjust="spacing" textLength="195.4326" x="898.7686" y="116.0234">CampusAuthorizationService</text><ellipse cx="999.4849" cy="86.4883" fill="#E2E2F0" rx="12" ry="12" style="stroke:#181818;stroke-width:0.5;"/><polygon fill="#181818" points="995.4849,74.4883,1001.4849,69.4883,999.4849,74.4883,1001.4849,79.4883,995.4849,74.4883" style="stroke:#181818;stroke-width:1;"/></g><g class="participant participant-head" data-entity-uid="part5" data-qualified-name="CampusService" id="part5-head"><text fill="#000000" font-family="sans-serif" font-size="14" lengthAdjust="spacing" textLength="196.0752" x="1110.2012" y="116.0234">CampusConfigurationService</text><ellipse cx="1211.2388" cy="86.4883" fill="#E2E2F0" rx="12" ry="12" style="stroke:#181818;stroke-width:0.5;"/><polygon fill="#181818" points="1207.2388,74.4883,1213.2388,69.4883,1211.2388,74.4883,1213.2388,79.4883,1207.2388,74.4883" style="stroke:#181818;stroke-width:1;"/></g><g class="participant participant-head" data-entity-uid="part6" data-qualified-name="OptionsService" id="part6-head"><text fill="#000000" font-family="sans-serif" font-size="14" lengthAdjust="spacing" textLength="155.8525" x="1322.2764" y="116.0234">CampusOptionsService</text><ellipse cx="1403.2026" cy="86.4883" fill="#E2E2F0" rx="12" ry="12" style="stroke:#181818;stroke-width:0.5;"/><polygon fill="#181818" points="1399.2026,74.4883,1405.2026,69.4883,1403.2026,74.4883,1405.2026,79.4883,1399.2026,74.4883" style="stroke:#181818;stroke-width:1;"/></g><g class="participant participant-head" data-entity-uid="part7" data-qualified-name="CampusStore" id="part7-head"><text fill="#000000" font-family="sans-serif" font-size="14" lengthAdjust="spacing" textLength="237.7334" x="1494.1289" y="116.0234">DS-CA-001 Campus Configuration</text><path d="M1597.9956,66.4883 C1597.9956,56.4883 1615.9956,56.4883 1615.9956,56.4883 C1615.9956,56.4883 1633.9956,56.4883 1633.9956,66.4883 L1633.9956,92.4883 C1633.9956,102.4883 1615.9956,102.4883 1615.9956,102.4883 C1615.9956,102.4883 1597.9956,102.4883 1597.9956,92.4883 L1597.9956,66.4883" fill="#E2E2F0" style="stroke:#181818;stroke-width:0.5;"/><path d="M1597.9956,66.4883 C1597.9956,76.4883 1615.9956,76.4883 1615.9956,76.4883 C1615.9956,76.4883 1633.9956,76.4883 1633.9956,66.4883" fill="none" style="stroke:#181818;stroke-width:0.5;"/></g><g class="participant participant-head" data-entity-uid="part8" data-qualified-name="OptionsStore" id="part8-head"><text fill="#000000" font-family="sans-serif" font-size="14" lengthAdjust="spacing" textLength="272.5693" x="1747.8623" y="116.0234">DS-CA-002 Campus Structured Options</text><path d="M1869.147,66.4883 C1869.147,56.4883 1887.147,56.4883 1887.147,56.4883 C1887.147,56.4883 1905.147,56.4883 1905.147,66.4883 L1905.147,92.4883 C1905.147,102.4883 1887.147,102.4883 1887.147,102.4883 C1887.147,102.4883 1869.147,102.4883 1869.147,92.4883 L1869.147,66.4883" fill="#E2E2F0" style="stroke:#181818;stroke-width:0.5;"/><path d="M1869.147,66.4883 C1869.147,76.4883 1887.147,76.4883 1887.147,76.4883 C1887.147,76.4883 1905.147,76.4883 1905.147,66.4883" fill="none" style="stroke:#181818;stroke-width:0.5;"/></g><g class="message" data-entity-1="part1" data-entity-2="part2" id="msg1"><polygon fill="#181818" points="319.1289,146.2871,329.1289,150.2871,319.1289,154.2871,323.1289,150.2871" style="stroke:#181818;stroke-width:1;"/><line style="stroke:#181818;stroke-width:1;" x1="84.9155" x2="325.1289" y1="150.2871" y2="150.2871"/><text fill="#000000" font-family="sans-serif" font-size="13" font-weight="bold" lengthAdjust="spacing" textLength="8.5757" x="91.9155" y="145.5449">1</text><text fill="#000000" font-family="sans-serif" font-size="13" lengthAdjust="spacing" textLength="120.9102" x="104.4912" y="145.5449">start campus setup</text></g><g class="message" data-entity-1="part2" data-entity-2="part3" id="msg2"><polygon fill="#181818" points="725.1128,190.9082,735.1128,194.9082,725.1128,198.9082,729.1128,194.9082" style="stroke:#181818;stroke-width:1;"/><line style="stroke:#181818;stroke-width:1;" x1="331.1289" x2="731.1128" y1="194.9082" y2="194.9082"/><text fill="#000000" font-family="sans-serif" font-size="13" font-weight="bold" lengthAdjust="spacing" textLength="8.5757" x="338.1289" y="182.5107">2</text><text fill="#000000" font-family="sans-serif" font-size="13" lengthAdjust="spacing" textLength="298.6382" x="350.7046" y="174.8555">configureCampus(AuthenticatedAdminContext,</text><text fill="#000000" font-family="sans-serif" font-size="13" lengthAdjust="spacing" textLength="168.6953" x="350.7046" y="190.166">setupFields, initialOptions)</text></g><g class="message" data-entity-1="part3" data-entity-2="part4" id="msg3"><polygon fill="#181818" points="987.4849,235.5293,997.4849,239.5293,987.4849,243.5293,991.4849,239.5293" style="stroke:#181818;stroke-width:1;"/><line style="stroke:#181818;stroke-width:1;" x1="737.1128" x2="993.4849" y1="239.5293" y2="239.5293"/><text fill="#000000" font-family="sans-serif" font-size="13" font-weight="bold" lengthAdjust="spacing" textLength="8.5757" x="744.1128" y="227.1318">3</text><text fill="#000000" font-family="sans-serif" font-size="13" lengthAdjust="spacing" textLength="147.5322" x="756.6885" y="219.4766">verify setup permission</text><text fill="#000000" font-family="sans-serif" font-size="13" lengthAdjust="spacing" textLength="187.5796" x="756.6885" y="234.7871">(AuthenticatedAdminContext)</text></g><path d="M10,254.5293 L72.1387,254.5293 L72.1387,261.8398 L62.1387,271.8398 L10,271.8398 L10,254.5293" fill="#EEEEEE" style="stroke:#000000;stroke-width:1.5;"/><rect fill="none" height="648.4316" style="stroke:#000000;stroke-width:1.5;" width="2036.4316" x="10" y="254.5293"/><text fill="#000000" font-family="sans-serif" font-size="13" font-weight="bold" lengthAdjust="spacing" textLength="17.1387" x="25" y="268.0977">alt</text><text fill="#000000" font-family="sans-serif" font-size="11" font-weight="bold" lengthAdjust="spacing" textLength="112.4063" x="87.1387" y="267.1641">[authorization fails]</text><g class="message" data-entity-1="part4" data-entity-2="part3" id="msg4"><polygon fill="#181818" points="748.1128,289.1504,738.1128,293.1504,748.1128,297.1504,744.1128,293.1504" style="stroke:#181818;stroke-width:1;"/><line style="stroke:#181818;stroke-width:1;stroke-dasharray:2,2;" x1="742.1128" x2="998.4849" y1="293.1504" y2="293.1504"/><text fill="#000000" font-family="sans-serif" font-size="13" font-weight="bold" lengthAdjust="spacing" textLength="8.5757" x="754.1128" y="288.4082">4</text><text fill="#000000" font-family="sans-serif" font-size="13" lengthAdjust="spacing" textLength="93.1455" x="766.6885" y="288.4082">not authorized</text></g><g class="message" data-entity-1="part3" data-entity-2="part2" id="msg5"><polygon fill="#181818" points="342.1289,318.4609,332.1289,322.4609,342.1289,326.4609,338.1289,322.4609" style="stroke:#181818;stroke-width:1;"/><line style="stroke:#181818;stroke-width:1;stroke-dasharray:2,2;" x1="336.1289" x2="736.1128" y1="322.4609" y2="322.4609"/><text fill="#000000" font-family="sans-serif" font-size="13" font-weight="bold" lengthAdjust="spacing" textLength="8.5757" x="348.1289" y="317.7188">5</text><text fill="#000000" font-family="sans-serif" font-size="13" lengthAdjust="spacing" textLength="114.4863" x="360.7046" y="317.7188">deny setup access</text></g><g class="message" data-entity-1="part2" data-entity-2="part1" id="msg6"><polygon fill="#181818" points="95.9155,347.7715,85.9155,351.7715,95.9155,355.7715,91.9155,351.7715" style="stroke:#181818;stroke-width:1;"/><line style="stroke:#181818;stroke-width:1;stroke-dasharray:2,2;" x1="89.9155" x2="330.1289" y1="351.7715" y2="351.7715"/><text fill="#000000" font-family="sans-serif" font-size="13" font-weight="bold" lengthAdjust="spacing" textLength="8.5757" x="101.9155" y="347.0293">6</text><text fill="#000000" font-family="sans-serif" font-size="13" lengthAdjust="spacing" textLength="124.5918" x="114.4912" y="347.0293">show access denied</text></g><line style="stroke:#000000;stroke-width:1;stroke-dasharray:2,2;" x1="10" x2="2046.4316" y1="360.7715" y2="360.7715"/><text fill="#000000" font-family="sans-serif" font-size="11" font-weight="bold" lengthAdjust="spacing" textLength="139.5571" x="15" y="371.4063">[authorization succeeds]</text><g class="message" data-entity-1="part4" data-entity-2="part3" id="msg7"><polygon fill="#181818" points="748.1128,392.0371,738.1128,396.0371,748.1128,400.0371,744.1128,396.0371" style="stroke:#181818;stroke-width:1;"/><line style="stroke:#181818;stroke-width:1;stroke-dasharray:2,2;" x1="742.1128" x2="998.4849" y1="396.0371" y2="396.0371"/><text fill="#000000" font-family="sans-serif" font-size="13" font-weight="bold" lengthAdjust="spacing" textLength="8.5757" x="754.1128" y="391.2949">7</text><text fill="#000000" font-family="sans-serif" font-size="13" lengthAdjust="spacing" textLength="68.1167" x="766.6885" y="391.2949">authorized</text></g><g class="message" data-entity-1="part3" data-entity-2="part5" id="msg8"><polygon fill="#181818" points="1199.2388,421.3477,1209.2388,425.3477,1199.2388,429.3477,1203.2388,425.3477" style="stroke:#181818;stroke-width:1;"/><line style="stroke:#181818;stroke-width:1;" x1="737.1128" x2="1205.2388" y1="425.3477" y2="425.3477"/><text fill="#000000" font-family="sans-serif" font-size="13" font-weight="bold" lengthAdjust="spacing" textLength="8.5757" x="744.1128" y="420.6055">8</text><text fill="#000000" font-family="sans-serif" font-size="13" lengthAdjust="spacing" textLength="259.3843" x="756.6885" y="420.6055">validate campus setup fields(setupFields)</text></g><g class="message" data-entity-1="part5" data-entity-2="part3" id="msg9"><polygon fill="#181818" points="748.1128,450.6582,738.1128,454.6582,748.1128,458.6582,744.1128,454.6582" style="stroke:#181818;stroke-width:1;"/><line style="stroke:#181818;stroke-width:1;stroke-dasharray:2,2;" x1="742.1128" x2="1210.2388" y1="454.6582" y2="454.6582"/><text fill="#000000" font-family="sans-serif" font-size="13" font-weight="bold" lengthAdjust="spacing" textLength="8.5757" x="754.1128" y="449.916">9</text><text fill="#000000" font-family="sans-serif" font-size="13" lengthAdjust="spacing" textLength="154.4131" x="766.6885" y="449.916">campus validation result</text></g><g class="message" data-entity-1="part3" data-entity-2="part6" id="msg10"><polygon fill="#181818" points="1391.2026,479.9688,1401.2026,483.9688,1391.2026,487.9688,1395.2026,483.9688" style="stroke:#181818;stroke-width:1;"/><line style="stroke:#181818;stroke-width:1;" x1="737.1128" x2="1397.2026" y1="483.9688" y2="483.9688"/><text fill="#000000" font-family="sans-serif" font-size="13" font-weight="bold" lengthAdjust="spacing" textLength="17.1514" x="744.1128" y="479.2266">10</text><text fill="#000000" font-family="sans-serif" font-size="13" lengthAdjust="spacing" textLength="338.9521" x="765.2642" y="479.2266">validate initial categories and locations(initialOptions)</text></g><g class="message" data-entity-1="part6" data-entity-2="part3" id="msg11"><polygon fill="#181818" points="748.1128,509.2793,738.1128,513.2793,748.1128,517.2793,744.1128,513.2793" style="stroke:#181818;stroke-width:1;"/><line style="stroke:#181818;stroke-width:1;stroke-dasharray:2,2;" x1="742.1128" x2="1402.2026" y1="513.2793" y2="513.2793"/><text fill="#000000" font-family="sans-serif" font-size="13" font-weight="bold" lengthAdjust="spacing" textLength="17.1514" x="754.1128" y="508.5371">11</text><text fill="#000000" font-family="sans-serif" font-size="13" lengthAdjust="spacing" textLength="153.0293" x="775.2642" y="508.5371">options validation result</text></g><path d="M20,528.2793 L82.1387,528.2793 L82.1387,535.5898 L72.1387,545.5898 L20,545.5898 L20,528.2793" fill="#EEEEEE" style="stroke:#000000;stroke-width:1.5;"/><rect fill="none" height="367.6816" style="stroke:#000000;stroke-width:1.5;" width="2016.4316" x="20" y="528.2793"/><text fill="#000000" font-family="sans-serif" font-size="13" font-weight="bold" lengthAdjust="spacing" textLength="17.1387" x="35" y="541.8477">alt</text><text fill="#000000" font-family="sans-serif" font-size="11" font-weight="bold" lengthAdjust="spacing" textLength="92.3667" x="97.1387" y="540.9141">[validation fails]</text><g class="message" data-entity-1="part3" data-entity-2="part2" id="msg12"><polygon fill="#181818" points="342.1289,562.9004,332.1289,566.9004,342.1289,570.9004,338.1289,566.9004" style="stroke:#181818;stroke-width:1;"/><line style="stroke:#181818;stroke-width:1;stroke-dasharray:2,2;" x1="336.1289" x2="736.1128" y1="566.9004" y2="566.9004"/><text fill="#000000" font-family="sans-serif" font-size="13" font-weight="bold" lengthAdjust="spacing" textLength="17.1514" x="348.1289" y="562.1582">12</text><text fill="#000000" font-family="sans-serif" font-size="13" lengthAdjust="spacing" textLength="146.377" x="369.2803" y="562.1582">return validation errors</text></g><g class="message" data-entity-1="part2" data-entity-2="part1" id="msg13"><polygon fill="#181818" points="95.9155,592.2109,85.9155,596.2109,95.9155,600.2109,91.9155,596.2109" style="stroke:#181818;stroke-width:1;"/><line style="stroke:#181818;stroke-width:1;stroke-dasharray:2,2;" x1="89.9155" x2="330.1289" y1="596.2109" y2="596.2109"/><text fill="#000000" font-family="sans-serif" font-size="13" font-weight="bold" lengthAdjust="spacing" textLength="17.1514" x="101.9155" y="591.4688">13</text><text fill="#000000" font-family="sans-serif" font-size="13" lengthAdjust="spacing" textLength="201.062" x="123.0669" y="591.4688">show fields requiring correction</text></g><line style="stroke:#000000;stroke-width:1;stroke-dasharray:2,2;" x1="20" x2="2036.4316" y1="605.2109" y2="605.2109"/><text fill="#000000" font-family="sans-serif" font-size="11" font-weight="bold" lengthAdjust="spacing" textLength="119.5176" x="25" y="615.8457">[validation succeeds]</text><g class="message" data-entity-1="part3" data-entity-2="part7" id="msg14"><polygon fill="#181818" points="1603.9956,636.4766,1613.9956,640.4766,1603.9956,644.4766,1607.9956,640.4766" style="stroke:#181818;stroke-width:1;"/><line style="stroke:#181818;stroke-width:1;" x1="737.1128" x2="1609.9956" y1="640.4766" y2="640.4766"/><text fill="#000000" font-family="sans-serif" font-size="13" font-weight="bold" lengthAdjust="spacing" textLength="17.1514" x="744.1128" y="635.7344">14</text><text fill="#000000" font-family="sans-serif" font-size="13" lengthAdjust="spacing" textLength="180.1782" x="765.2642" y="635.7344">create campus configuration</text></g><g class="message" data-entity-1="part7" data-entity-2="part3" id="msg15"><polygon fill="#181818" points="748.1128,665.7871,738.1128,669.7871,748.1128,673.7871,744.1128,669.7871" style="stroke:#181818;stroke-width:1;"/><line style="stroke:#181818;stroke-width:1;stroke-dasharray:2,2;" x1="742.1128" x2="1614.9956" y1="669.7871" y2="669.7871"/><text fill="#000000" font-family="sans-serif" font-size="13" font-weight="bold" lengthAdjust="spacing" textLength="17.1514" x="754.1128" y="665.0449">15</text><text fill="#000000" font-family="sans-serif" font-size="13" lengthAdjust="spacing" textLength="115.4702" x="775.2642" y="665.0449">created CampusID</text></g><g class="message" data-entity-1="part3" data-entity-2="part8" id="msg16"><polygon fill="#181818" points="1875.147,695.0977,1885.147,699.0977,1875.147,703.0977,1879.147,699.0977" style="stroke:#181818;stroke-width:1;"/><line style="stroke:#181818;stroke-width:1;" x1="737.1128" x2="1881.147" y1="699.0977" y2="699.0977"/><text fill="#000000" font-family="sans-serif" font-size="13" font-weight="bold" lengthAdjust="spacing" textLength="17.1514" x="744.1128" y="694.3555">16</text><text fill="#000000" font-family="sans-serif" font-size="13" lengthAdjust="spacing" textLength="281.5884" x="765.2642" y="694.3555">create initial categories scoped to CampusID</text></g><g class="message" data-entity-1="part8" data-entity-2="part3" id="msg17"><polygon fill="#181818" points="748.1128,724.4082,738.1128,728.4082,748.1128,732.4082,744.1128,728.4082" style="stroke:#181818;stroke-width:1;"/><line style="stroke:#181818;stroke-width:1;stroke-dasharray:2,2;" x1="742.1128" x2="1886.147" y1="728.4082" y2="728.4082"/><text fill="#000000" font-family="sans-serif" font-size="13" font-weight="bold" lengthAdjust="spacing" textLength="17.1514" x="754.1128" y="723.666">17</text><text fill="#000000" font-family="sans-serif" font-size="13" lengthAdjust="spacing" textLength="217.6104" x="775.2642" y="723.666">created category option identifiers</text></g><g class="message" data-entity-1="part3" data-entity-2="part8" id="msg18"><polygon fill="#181818" points="1875.147,753.7188,1885.147,757.7188,1875.147,761.7188,1879.147,757.7188" style="stroke:#181818;stroke-width:1;"/><line style="stroke:#181818;stroke-width:1;" x1="737.1128" x2="1881.147" y1="757.7188" y2="757.7188"/><text fill="#000000" font-family="sans-serif" font-size="13" font-weight="bold" lengthAdjust="spacing" textLength="17.1514" x="744.1128" y="752.9766">18</text><text fill="#000000" font-family="sans-serif" font-size="13" lengthAdjust="spacing" textLength="273.4888" x="765.2642" y="752.9766">create initial locations scoped to CampusID</text></g><g class="message" data-entity-1="part8" data-entity-2="part3" id="msg19"><polygon fill="#181818" points="748.1128,783.0293,738.1128,787.0293,748.1128,791.0293,744.1128,787.0293" style="stroke:#181818;stroke-width:1;"/><line style="stroke:#181818;stroke-width:1;stroke-dasharray:2,2;" x1="742.1128" x2="1886.147" y1="787.0293" y2="787.0293"/><text fill="#000000" font-family="sans-serif" font-size="13" font-weight="bold" lengthAdjust="spacing" textLength="17.1514" x="754.1128" y="782.2871">19</text><text fill="#000000" font-family="sans-serif" font-size="13" lengthAdjust="spacing" textLength="213.7192" x="775.2642" y="782.2871">created location option identifiers</text></g><g class="message" data-entity-1="part3" data-entity-2="part3" id="msg20"><line style="stroke:#181818;stroke-width:1;" x1="737.1128" x2="779.1128" y1="816.3398" y2="816.3398"/><line style="stroke:#181818;stroke-width:1;" x1="779.1128" x2="779.1128" y1="816.3398" y2="829.3398"/><line style="stroke:#181818;stroke-width:1;" x1="738.1128" x2="779.1128" y1="829.3398" y2="829.3398"/><polygon fill="#181818" points="748.1128,825.3398,738.1128,829.3398,748.1128,833.3398,744.1128,829.3398" style="stroke:#181818;stroke-width:1;"/><text fill="#000000" font-family="sans-serif" font-size="13" font-weight="bold" lengthAdjust="spacing" textLength="17.1514" x="744.1128" y="811.5977">20</text><text fill="#000000" font-family="sans-serif" font-size="13" lengthAdjust="spacing" textLength="227.2207" x="765.2642" y="811.5977">mark CampusID as tenant boundary</text></g><g class="message" data-entity-1="part3" data-entity-2="part2" id="msg21"><polygon fill="#181818" points="342.1289,854.6504,332.1289,858.6504,342.1289,862.6504,338.1289,858.6504" style="stroke:#181818;stroke-width:1;"/><line style="stroke:#181818;stroke-width:1;stroke-dasharray:2,2;" x1="336.1289" x2="736.1128" y1="858.6504" y2="858.6504"/><text fill="#000000" font-family="sans-serif" font-size="13" font-weight="bold" lengthAdjust="spacing" textLength="17.1514" x="348.1289" y="853.9082">21</text><text fill="#000000" font-family="sans-serif" font-size="13" lengthAdjust="spacing" textLength="360.8325" x="369.2803" y="853.9082">return campus setup result(CampusID, option identifiers)</text></g><g class="message" data-entity-1="part2" data-entity-2="part1" id="msg22"><polygon fill="#181818" points="95.9155,883.9609,85.9155,887.9609,95.9155,891.9609,91.9155,887.9609" style="stroke:#181818;stroke-width:1;"/><line style="stroke:#181818;stroke-width:1;stroke-dasharray:2,2;" x1="89.9155" x2="330.1289" y1="887.9609" y2="887.9609"/><text fill="#000000" font-family="sans-serif" font-size="13" font-weight="bold" lengthAdjust="spacing" textLength="17.1514" x="101.9155" y="883.2188">22</text><text fill="#000000" font-family="sans-serif" font-size="13" lengthAdjust="spacing" textLength="183.5869" x="123.0669" y="883.2188">show configuration complete</text></g><path d="M614,914.9609 L614,969.9609 L2009,969.9609 L2009,924.9609 L1999,914.9609 L614,914.9609" fill="#FEFFDD" style="stroke:#181818;stroke-width:0.5;"/><path d="M1999,914.9609 L1999,924.9609 L2009,924.9609 L1999,914.9609" fill="#FEFFDD" style="stroke:#181818;stroke-width:0.5;"/><text fill="#000000" font-family="sans-serif" font-size="13" lengthAdjust="spacing" textLength="360.6421" x="1002.2981" y="932.5293">CA creates only DS-CA-001 and DS-CA-002 in this flow.</text><text fill="#000000" font-family="sans-serif" font-size="13" lengthAdjust="spacing" textLength="610.1748" x="1002.2981" y="947.8398">No student account/profile, activity, participation, report, block, or notification store is mutated.</text><text fill="#000000" font-family="sans-serif" font-size="13" lengthAdjust="spacing" textLength="411.1694" x="1002.2981" y="963.1504">AuthenticatedAdminContext is runtime context, not a data store.</text><?plantuml-src fLLDRzim3BthLn0z9O3JTJlsK218CQ2NxX0Ck_IYo4mYL9PSIawR_VfHiXtB-Lgn1GYGI7oFJtoK67Gm20jdrthJ4C8pliD2LdNZOGPBV6lGAeH7BJSaAzWzuqSGOgjBXBLpOUK-X6o2iqsrGX92gk08RZg2ULbfUmEo-oLMhh6bf7qViCJGrB_qRqdbKX5Y6vjMVpu9vMmWP_hWNg8Csjb5ksUG4cJuUuoQDs7hY5D4r19ffnMsYlADgxboLAyxhHoZVjGntEVnuoLHoY1NqYFSF2vdY_dixkvhN-nHoZmN5_GSy5iFN0PgL63hoZxRA7E2YrH_c3tqnRq77oG5K2s7ZwkYsujXGq7lGVMzqIQSnCgX3Lh9W6KYZj7S5yMBJKJVDPhI5w2j3bgQJibK3AGnnSY0UzWXwVM-LG8rKgMzvuqNUpdVbFlD190v4QobDbu0VqO9O7PqAki699O9aElBIrMYxOL9fT2tz8TgnRD4LLpJhNllGY98CoyQDcsiq3SSWULdH5uH-33kHIwWD9hR14UUmZfvCSbycRPKEVWaRqVHKKPbXBunuOoASOTdCZht8TgsuKEW1sbBC4ubHZyvRe_8FMOxqUNQxJF24ZfsGxOrjC8rTub_aCrnIEHe05uokYqjuzyQJTfk-A8GeKhlISGbwpFQaUyNxOptbGqWpAnK-Timm0V0gO49NtOnJuyNSkQFn27f6UEySZMp1NTAc5DSbD5HxJi3WSS7NsWk8Fb_KNReeVyMrZDzNbZEKabwFIIEZsv0Ass0VivzjlT6DxPjw4bFMvoHDlrhRuuwXlzLjS60RLjQVfNuA_W5H73yxcRoYl7SMCoxIdbmrknXc5hnAW-ZY6TBs6eFQ-FURyMpu-dIHBdnCUHQX2yrkRKsMF12q3iTzWNKF7-qqdMIMF2nQqUXW1LRyig7flX2yt4xVtooaLDKJOZEtOgBOo564IVL5SOwfCdKFlSGnsXBTHjh45TH_040?></g></svg>